<?xml version="1.0" standalone="no"?>
<!DOCTYPE svg PUBLIC "-//W3C//DTD SVG 20010904//EN"
 "http://www.w3.org/TR/2001/REC-SVG-20010904/DTD/svg10.dtd">
<svg version="1.0" xmlns="http://www.w3.org/2000/svg"
 width="2048.000000pt" height="2048.000000pt" viewBox="0 0 2048.000000 2048.000000"
 preserveAspectRatio="xMidYMid meet">

<g transform="translate(0.000000,2048.000000) scale(0.100000,-0.100000)"
fill="white" stroke="none">
<path d="M2420 16633 c-194 -21 -407 -100 -580 -216 -96 -64 -273 -241 -337
-337 -95 -142 -163 -302 -199 -470 -26 -119 -26 -381 0 -500 56 -259 167 -463
355 -651 188 -188 389 -298 651 -355 83 -18 309 -19 7930 -19 7621 0 7847 1
7930 19 262 57 463 167 651 355 188 188 299 392 355 651 26 119 26 381 0 500
-56 262 -167 463 -360 656 -182 181 -361 280 -626 347 l-85 22 -7825 1 c-4304
0 -7841 -1 -7860 -3z"/>
<path d="M2420 11513 c-194 -21 -407 -100 -580 -216 -96 -64 -273 -241 -337
-337 -95 -142 -163 -302 -199 -470 -26 -119 -26 -381 0 -500 56 -259 167 -463
355 -651 188 -188 389 -298 651 -355 83 -18 309 -19 7930 -19 7621 0 7847 1
7930 19 262 57 463 167 651 355 188 188 299 392 355 651 26 119 26 381 0 500
-56 262 -167 463 -360 656 -182 181 -361 280 -626 347 l-85 22 -7825 1 c-4304
0 -7841 -1 -7860 -3z"/>
<path d="M2420 6393 c-194 -21 -407 -100 -580 -216 -96 -64 -273 -241 -337
-337 -95 -142 -163 -302 -199 -470 -26 -119 -26 -381 0 -500 56 -259 167 -463
355 -651 188 -188 389 -298 651 -355 83 -18 309 -19 7930 -19 7621 0 7847 1
7930 19 262 57 463 167 651 355 188 188 299 392 355 651 26 119 26 381 0 500
-56 262 -167 463 -360 656 -182 181 -361 280 -626 347 l-85 22 -7825 1 c-4304
0 -7841 -1 -7860 -3z"/>
</g>
</svg>
