<?xml version="1.0" standalone="no"?>
<!DOCTYPE svg PUBLIC "-//W3C//DTD SVG 20010904//EN"
 "http://www.w3.org/TR/2001/REC-SVG-20010904/DTD/svg10.dtd">
<svg version="1.0" xmlns="http://www.w3.org/2000/svg"
 width="818.000000pt" height="815.000000pt" viewBox="0 0 818.000000 815.000000"
 preserveAspectRatio="xMidYMid meet" fill="white">

<g transform="translate(0.000000,815.000000) scale(0.100000,-0.100000)"
fill="#000000" stroke="none">
<path d="M3704 6206 c-69 -32 -109 -84 -140 -181 -22 -67 -26 -101 -27 -207
-1 -122 -2 -127 -25 -137 -12 -6 -25 -18 -28 -26 -11 -27 -28 -15 -74 48 -57
79 -57 77 -25 77 44 0 99 35 118 74 36 76 10 161 -66 213 -38 26 -47 28 -141
28 -93 0 -105 -2 -147 -28 -26 -15 -69 -51 -97 -80 -41 -45 -59 -55 -104 -66
-79 -17 -113 -55 -113 -124 0 -38 -5 -56 -17 -65 -12 -9 -18 -27 -18 -56 l0
-43 -52 -5 c-43 -5 -57 -11 -81 -38 -21 -24 -32 -29 -40 -21 -22 22 -26 10
-10 -24 17 -36 33 -46 33 -21 0 8 12 29 26 46 20 24 33 30 50 26 12 -3 24 -1
26 5 5 16 48 1 48 -17 0 -8 -9 -31 -20 -51 -25 -47 -26 -108 -2 -153 24 -46
58 -105 79 -136 8 -14 13 -28 9 -32 -4 -3 -11 0 -16 8 -5 8 -35 41 -67 73 -48
48 -62 57 -84 52 -17 -4 -30 -1 -39 10 -10 12 -10 15 0 15 10 0 10 3 0 15 -15
18 -34 20 -24 3 13 -21 12 -46 -3 -41 -7 3 -13 9 -13 14 0 5 -7 9 -16 9 -11 0
-14 -5 -10 -17 6 -16 6 -16 -12 0 -24 22 -38 22 -21 0 11 -15 10 -14 -9 1 -19
16 -22 17 -22 3 0 -9 5 -19 10 -22 6 -3 10 -11 10 -18 0 -8 -3 -8 -12 1 -19
19 -26 14 -20 -13 5 -30 -13 -33 -28 -6 -17 32 -12 60 16 88 25 25 42 27 89 7
17 -7 18 -6 7 8 -7 9 -26 18 -42 21 -16 4 -36 17 -44 29 -21 32 -31 78 -17 78
6 0 13 -11 17 -25 4 -14 11 -24 18 -22 20 6 18 42 -4 62 -29 26 -25 33 23 38
38 3 36 4 -14 5 -32 1 -63 -3 -73 -11 -16 -12 -16 -16 3 -86 11 -41 23 -76 25
-79 3 -2 -6 -21 -19 -41 -29 -42 -32 -77 -8 -103 19 -22 13 -29 -42 -47 -53
-18 -120 -74 -136 -114 -7 -18 -18 -39 -25 -47 -21 -26 -5 -70 32 -88 40 -19
42 -28 10 -75 -14 -20 -37 -73 -52 -118 -24 -72 -26 -91 -21 -169 5 -76 11
-98 46 -169 48 -95 96 -145 177 -186 54 -28 67 -30 164 -30 98 1 109 3 166 32
90 47 134 110 134 193 0 31 -36 110 -49 110 -6 0 -8 -7 -5 -15 11 -27 -11 -16
-51 25 -38 39 -38 54 1 25 23 -17 34 -19 34 -5 0 18 -82 50 -128 50 -24 0 -65
-9 -92 -21 -89 -38 -135 -146 -96 -221 13 -24 13 -28 1 -28 -8 0 -27 21 -42
48 -47 79 -34 190 31 260 46 51 93 67 201 67 89 0 105 -3 152 -27 98 -52 194
-152 286 -297 26 -41 47 -82 47 -91 0 -23 -69 -129 -112 -171 -85 -85 -201
-134 -261 -110 -62 25 -75 25 -101 -4 -17 -19 -26 -39 -26 -62 0 -41 34 -112
58 -119 38 -12 47 -23 52 -60 l5 -39 58 3 c31 1 57 -2 57 -7 0 -28 -135 -112
-233 -145 -47 -16 -170 -22 -201 -10 -28 11 -17 21 23 21 66 0 118 50 135 128
9 43 -29 115 -74 138 -47 24 -135 17 -198 -15 -62 -32 -115 -107 -132 -187
-12 -58 -12 -61 15 -107 53 -90 109 -138 198 -168 17 -5 17 -8 -3 -45 -23 -45
-26 -88 -8 -126 13 -29 1 -28 185 -11 131 12 149 16 217 50 48 23 102 62 152
109 61 57 76 67 71 47 -41 -151 -45 -327 -12 -480 20 -97 87 -231 138 -277 66
-59 149 -87 187 -63 13 8 12 11 -5 23 -10 8 -25 13 -32 10 -17 -7 -17 18 1 42
12 17 15 16 57 -21 24 -22 69 -56 99 -76 126 -82 300 -257 300 -301 0 -11 6
-13 23 -9 19 5 20 4 8 -11 -20 -25 6 -31 51 -13 28 12 41 28 67 81 17 36 36
63 41 60 15 -9 12 -26 -6 -47 -9 -9 -18 -34 -20 -54 -4 -53 -73 -183 -106
-203 -26 -14 -29 -14 -45 2 -17 17 -17 18 0 11 11 -4 17 -1 17 9 0 10 -7 13
-20 10 -16 -4 -18 -11 -13 -30 4 -19 2 -24 -8 -21 -18 6 -23 51 -9 78 10 18 8
20 -25 20 -38 0 -90 40 -82 63 4 12 8 13 47 16 33 2 23 21 -12 22 l-33 2 35 7
c35 7 35 7 10 17 l-25 11 28 11 c16 6 25 16 22 21 -8 13 -60 -17 -86 -49 -39
-49 -16 -121 46 -147 26 -11 32 -18 28 -37 -4 -18 3 -30 22 -45 24 -19 29 -20
65 -7 42 15 51 10 64 -31 8 -25 111 -124 130 -124 19 0 95 84 112 125 8 19 14
44 14 55 l0 21 30 -21 c71 -51 140 -46 140 9 0 23 6 30 26 35 36 9 56 61 43
110 -5 20 -14 36 -19 36 -4 0 -6 -10 -2 -22 5 -21 4 -22 -11 -9 -16 13 -16 12
-2 -15 21 -40 19 -49 -11 -63 -22 -10 -30 -9 -45 5 -21 19 -51 12 -43 -10 3
-8 14 -16 25 -19 20 -5 36 -33 25 -45 -6 -6 -21 10 -29 31 -4 14 -37 -4 -37
-20 0 -13 -3 -13 -15 -3 -8 7 -15 20 -15 28 0 13 -3 12 -16 -4 -14 -18 -15
-16 -10 23 5 31 2 46 -10 58 -26 25 -41 2 -20 -29 15 -23 15 -26 1 -26 -16 0
-54 70 -55 99 0 11 4 11 18 -2 40 -36 42 -15 5 42 -15 23 -34 41 -45 41 -10 0
-18 -1 -18 -2 0 -2 16 -52 35 -113 37 -116 42 -162 24 -198 -12 -24 -69 -87
-78 -87 -4 0 -3 44 0 97 4 54 7 160 8 236 1 136 1 137 24 137 17 0 28 -10 40
-35 9 -20 17 -42 17 -50 0 -8 7 -15 15 -15 9 0 27 -7 40 -16 29 -19 90 -30 80
-15 -3 6 0 11 9 11 8 0 16 6 19 13 3 8 9 6 20 -8 8 -11 19 -16 24 -12 4 5 0
15 -11 22 -17 13 -14 19 50 92 113 127 182 193 202 193 11 0 31 -9 45 -20 60
-47 172 -6 283 104 81 82 114 145 151 286 20 78 25 122 26 248 1 83 4 152 7
152 3 0 26 -18 50 -41 50 -45 139 -94 211 -115 71 -21 222 -35 231 -21 10 16
10 39 -2 57 -8 12 -10 9 -10 -13 l0 -29 -67 7 c-97 10 -137 21 -231 68 -85 42
-155 105 -188 170 -14 27 -14 28 3 19 10 -6 27 -20 38 -32 19 -21 112 -70 133
-70 6 0 17 -10 23 -22 l12 -22 8 22 c14 37 35 26 30 -15 -1 -7 3 -13 9 -13 7
0 20 -10 30 -22 l19 -23 -6 23 c-7 30 11 28 37 -5 14 -18 20 -21 16 -10 -3 11
-9 31 -12 45 -6 26 -5 26 25 -8 29 -32 31 -33 25 -10 -3 14 -22 41 -40 60 -19
19 -32 27 -28 18 7 -19 -10 -25 -21 -8 -9 14 -68 13 -83 -2 -9 -9 -13 -7 -18
6 -4 10 -13 15 -24 11 -10 -3 -22 0 -27 7 -4 7 -21 20 -38 30 -32 17 -58 62
-69 118 l-6 34 27 -26 c16 -14 33 -24 40 -21 7 2 36 -11 65 -29 71 -45 89 -55
53 -26 -168 131 -202 187 -87 146 29 -11 36 -10 46 4 11 15 18 13 72 -21 59
-38 180 -88 189 -79 3 3 -21 15 -52 26 -54 20 -235 131 -248 152 -3 5 3 18 15
30 11 11 20 29 20 40 0 16 7 20 35 20 119 0 189 116 119 199 -32 38 -42 39
-70 4 -18 -22 -29 -27 -62 -26 -52 2 -74 14 -139 76 -49 46 -72 48 -38 3 8
-11 15 -29 16 -40 0 -12 3 -15 6 -8 9 22 23 13 23 -15 0 -19 3 -24 11 -16 14
14 57 -6 65 -31 4 -13 8 -15 14 -6 5 8 9 7 14 -5 5 -14 2 -16 -16 -12 -13 2
-31 8 -40 12 -32 13 -19 -14 19 -40 50 -33 116 -34 164 -2 29 20 34 28 31 58
-2 26 0 30 7 19 18 -25 12 -57 -15 -89 -40 -48 -120 -61 -163 -27 -12 9 -13 6
-8 -20 11 -57 0 -74 -48 -74 -70 0 -121 35 -170 115 -23 39 -48 87 -56 108 -7
20 -17 37 -22 37 -5 0 -7 -6 -4 -12 98 -230 101 -241 105 -335 3 -69 1 -93 -8
-93 -9 0 -11 12 -7 41 6 46 -2 109 -13 109 -12 0 -21 -93 -10 -104 25 -25 4
-76 -32 -76 -15 0 -17 6 -12 44 5 32 2 50 -10 67 -9 13 -16 35 -16 49 0 17 -8
29 -22 35 -24 11 -25 19 -12 115 7 57 -16 240 -50 390 -15 63 -37 171 -50 240
l-24 125 2 -117 c0 -65 -2 -118 -6 -118 -5 0 -8 -12 -8 -27 0 -37 -14 -60 -25
-42 -6 9 -10 8 -16 -7 -12 -31 -10 -42 11 -49 16 -5 20 -15 20 -56 0 -43 3
-49 21 -49 16 0 19 -4 14 -21 -4 -11 3 -63 16 -114 l22 -94 -23 -19 c-26 -21
-19 -46 11 -37 21 7 23 -2 20 -67 -2 -33 1 -40 28 -55 18 -10 34 -29 38 -43 3
-14 13 -35 21 -48 10 -15 13 -35 8 -63 -7 -45 5 -69 35 -69 20 0 27 -36 9 -42
-7 -2 -7 -41 1 -123 8 -86 8 -144 1 -205 -12 -93 -63 -247 -81 -243 -12 3 -12
2 -16 -35 -1 -12 -9 -30 -17 -40 -27 -31 -33 -48 -10 -29 11 11 25 16 31 13 5
-4 11 4 13 16 4 29 21 26 30 -4 4 -13 5 -2 2 25 -3 29 -1 47 5 47 17 0 40 -92
29 -114 -8 -15 -12 -16 -19 -5 -6 10 -9 4 -9 -18 0 -39 -15 -51 -25 -20 -7 19
-9 17 -12 -15 -5 -45 -15 -48 -31 -10 l-11 27 5 -32 c4 -27 0 -35 -30 -60 -20
-15 -39 -28 -43 -28 -5 -1 -18 -6 -30 -13 -13 -7 -23 -9 -23 -5 0 4 -5 2 -12
-5 -7 -7 -25 -12 -41 -12 -24 0 -28 3 -22 18 4 9 12 30 17 45 8 22 13 25 19
15 7 -10 9 -9 9 4 0 9 -6 18 -12 20 -7 3 5 16 27 30 55 35 68 52 112 143 37
78 38 83 41 213 5 190 -12 283 -121 657 -19 66 -47 165 -62 220 -14 55 -33
120 -40 145 -68 227 -135 667 -135 889 0 72 -3 131 -7 131 -5 0 -39 -96 -78
-213 -38 -116 -92 -268 -118 -337 -26 -69 -91 -253 -144 -410 -52 -157 -99
-289 -103 -294 -5 -4 -13 18 -19 50 -28 147 -78 333 -171 629 -99 320 -183
572 -194 583 -3 3 -6 -35 -6 -84 0 -49 -9 -150 -20 -224 -22 -153 -79 -400
-91 -400 -11 0 -11 3 6 75 19 78 18 114 -1 51 -20 -65 -27 -53 -14 25 5 35 10
71 10 79 0 31 -19 -14 -31 -72 -6 -32 -16 -58 -20 -58 -12 0 -11 14 6 85 19
80 17 127 -2 53 -16 -63 -36 -72 -22 -11 15 65 8 91 -8 31 -20 -78 -35 -74
-17 4 8 34 13 66 10 72 -2 6 -7 -4 -11 -22 -10 -45 -30 -56 -21 -11 17 83 18
317 2 455 -21 189 -84 399 -103 347 -3 -7 -9 -13 -14 -13 -14 0 -11 21 5 34
13 9 11 20 -11 74 -25 61 -45 84 -23 27 8 -20 8 -31 0 -39 -8 -8 -12 -4 -16
12 -4 12 -10 22 -15 22 -5 0 -6 7 -3 15 4 8 1 15 -5 15 -6 0 -11 8 -11 19 0
11 -9 21 -22 24 -12 4 -19 9 -15 13 10 10 -120 91 -174 109 -86 29 -139 9
-139 -52 0 -37 -9 -41 -33 -15 -25 27 -22 84 6 110 33 31 66 40 142 41 61 0
78 -5 154 -42 116 -56 149 -78 153 -102 2 -11 10 -20 18 -20 8 0 20 -16 26
-35 6 -19 18 -36 26 -38 17 -3 47 -62 49 -95 1 -17 2 -18 6 -4 6 23 18 21 31
-5 11 -21 11 -19 6 11 -4 23 -3 31 5 27 6 -4 11 -16 11 -26 0 -25 17 -35 23
-13 3 13 5 11 7 -7 l2 -25 12 29 13 29 7 -27 c4 -15 11 -24 16 -21 5 3 14 -4
20 -16 23 -42 20 -10 -8 82 -57 185 -55 205 3 34 20 -60 42 -114 47 -120 8 -7
9 -4 4 10 -41 114 -102 362 -92 372 3 3 8 -8 11 -23 10 -48 72 -267 84 -298 7
-16 14 -26 17 -23 3 2 -2 21 -10 40 -31 75 -86 323 -85 383 1 32 4 46 6 29 12
-96 63 -289 124 -471 138 -408 191 -579 314 -1019 14 -50 29 -117 33 -149 7
-58 32 -92 32 -44 0 23 38 138 160 488 92 264 118 336 164 445 24 55 53 127
66 160 13 33 29 67 36 76 8 8 14 21 14 27 0 6 9 27 21 46 28 47 17 46 -12 -1
-13 -20 -25 -31 -27 -25 -3 11 11 38 56 110 13 20 13 22 -2 16 -22 -8 -20 8 3
38 23 28 22 25 22 173 0 98 -3 116 -27 166 -25 54 -64 89 -98 89 -24 0 -19
-15 8 -28 33 -15 57 -88 63 -192 8 -131 -32 -288 -150 -585 -53 -132 -116
-301 -140 -375 -66 -198 -133 -369 -153 -391 -18 -20 -49 -25 -59 -9 -3 6 -23
70 -44 143 -35 120 -56 193 -168 572 -48 165 -66 231 -98 372 -47 211 -27 401
52 474 l25 24 27 -34 28 -34 16 24 c21 29 21 42 2 78 -14 29 -58 51 -99 51
-12 0 -44 -11 -72 -24z m57 -49 c-8 -8 -11 -5 -11 9 0 27 14 41 18 19 2 -9 -1
-22 -7 -28z m84 23 c3 -5 1 -10 -4 -10 -6 0 -11 5 -11 10 0 6 2 10 4 10 3 0 8
-4 11 -10z m-106 -33 c0 -12 -4 -31 -9 -42 -6 -15 -9 -8 -9 28 -1 30 3 46 9
42 6 -3 10 -16 9 -28z m-33 7 c-3 -9 -6 -42 -6 -75 0 -33 -4 -59 -10 -59 -5 0
-10 17 -10 38 0 56 11 112 22 112 6 0 7 -7 4 -16z m-46 -83 c0 -32 2 -74 5
-92 5 -30 4 -31 -5 -11 -16 38 -25 162 -11 162 7 0 11 -21 11 -59z m-31 -47
c1 -63 29 -208 60 -319 32 -113 47 -182 32 -150 -43 91 -111 392 -110 485 0
72 17 58 18 -16z m-225 42 c101 -42 130 -198 45 -242 -41 -21 -77 -17 -104 11
-41 40 -32 85 19 105 23 8 34 7 52 -5 28 -18 30 -33 9 -61 -12 -16 -16 -17
-24 -4 -11 16 -27 7 -16 -9 11 -18 54 -12 65 8 17 32 12 49 -26 91 -28 30 -44
40 -68 40 -40 0 -157 -41 -173 -60 -11 -13 -12 -13 -13 3 0 24 -30 22 -30 -3
0 -27 -18 -25 -22 3 -2 12 -10 22 -18 22 -9 0 -14 -7 -11 -20 3 -20 3 -20 -19
0 l-22 20 43 37 c95 82 213 106 313 64z m-93 -128 c-28 -26 -32 -36 -28 -65 3
-18 4 -33 2 -33 -16 0 -95 46 -92 54 5 16 51 46 93 61 58 21 62 18 25 -17z
m-246 -138 c3 -5 -1 -10 -9 -10 -9 0 -16 5 -16 10 0 6 4 10 9 10 6 0 13 -4 16
-10z m-122 -52 c-8 -46 -13 -48 -13 -5 0 21 4 37 10 37 5 0 7 -14 3 -32z m146
-131 c4 -4 6 17 3 48 -3 37 -1 55 7 55 8 0 11 -29 10 -92 -2 -107 5 -163 32
-268 34 -128 110 -351 149 -440 105 -234 156 -343 199 -425 138 -260 311 -717
386 -1020 28 -114 47 -159 35 -83 -22 132 -146 516 -250 772 -56 138 -71 185
-67 209 4 18 18 82 32 142 14 61 32 156 41 213 8 56 18 112 23 124 7 19 9 18
28 -14 29 -50 137 -370 187 -558 59 -222 77 -304 101 -469 14 -96 27 -176 29
-179 13 -13 25 17 36 90 17 120 130 479 279 887 39 107 71 200 71 206 0 6 7
21 16 34 13 18 19 20 25 10 10 -19 46 -173 54 -234 4 -27 16 -103 26 -168 l20
-117 -81 -168 c-123 -253 -178 -399 -264 -712 -49 -178 -126 -554 -126 -617 0
-68 -9 -85 -39 -78 -33 8 -29 2 -39 66 -6 40 -8 6 -8 -126 0 -201 -13 -291
-50 -347 -21 -33 -29 -38 -63 -38 -73 0 -116 63 -128 185 -7 79 1 124 32 169
17 26 20 36 11 36 -8 0 -25 -17 -37 -37 -19 -30 -23 -51 -23 -125 -1 -48 -3
-88 -6 -88 -3 0 -13 20 -23 44 -13 31 -23 43 -33 39 -11 -4 -14 4 -15 33 0 35
-1 37 -10 15 -9 -23 -10 -23 -28 -7 -13 12 -21 14 -26 6 -10 -16 -25 -2 -25
25 0 29 -17 42 -23 18 -3 -16 -5 -16 -12 2 -14 36 -27 48 -36 33 -7 -12 -12
-4 -35 57 -6 18 -8 18 -11 3 -7 -28 -33 -22 -33 7 0 27 32 65 54 65 8 0 23
-11 33 -24 45 -57 172 -84 247 -52 48 20 69 20 107 1 50 -26 69 -69 69 -157 0
-80 -12 -123 -38 -133 -49 -19 -98 71 -57 105 13 10 19 10 35 -5 19 -17 20
-17 20 -1 0 46 -40 72 -68 44 -15 -15 -16 -99 -1 -131 6 -14 23 -30 36 -36 73
-34 111 84 83 254 -6 33 -17 121 -25 195 -19 164 -52 341 -106 553 -48 191
-64 236 -81 219 -7 -7 -31 -12 -54 -12 -33 0 -43 4 -47 20 -4 16 2 21 37 29
l41 10 -45 -2 c-34 -2 -45 2 -48 14 -2 13 8 18 45 22 31 3 51 1 55 -6 31 -49
-45 193 -117 373 -21 52 -52 124 -70 160 -18 36 -36 76 -40 90 -4 14 -43 98
-86 187 -168 347 -211 442 -262 588 -74 209 -104 389 -92 555 8 119 19 138 23
40 2 -41 7 -79 11 -83z m95 82 c93 -109 162 -347 173 -595 6 -133 -3 -273 -16
-258 -4 5 -33 70 -64 144 -96 233 -157 483 -157 649 0 117 8 125 64 60z m-292
4 c10 -9 18 -24 18 -34 0 -10 6 -22 14 -26 7 -4 18 -18 25 -30 7 -14 21 -23
35 -23 35 0 42 -28 8 -32 -26 -3 -27 -5 -24 -58 3 -54 28 -218 38 -253 3 -10
22 -25 42 -35 47 -22 62 -52 62 -126 0 -56 -2 -61 -39 -96 -41 -39 -100 -60
-170 -60 -34 0 -41 3 -41 19 0 16 -8 20 -37 23 -39 3 -56 23 -26 31 10 3 -24
5 -74 6 -55 1 -93 5 -93 11 0 6 29 10 68 10 53 1 63 3 48 12 -12 6 -57 9 -122
6 -57 -3 -104 -1 -104 3 0 11 41 17 155 24 116 8 170 -3 205 -40 63 -67 179 7
156 100 -7 26 -51 55 -84 55 -59 0 -122 176 -122 342 l0 70 38 -22 37 -22 -37
34 c-36 33 -58 93 -43 117 9 16 46 13 67 -6z m95 -8 c-4 -8 -13 -15 -22 -15
-13 0 -12 3 3 18 19 21 27 20 19 -3z m53 -47 c0 -51 -5 -47 -14 10 -4 29 -3
41 4 37 5 -3 10 -25 10 -47z m-54 -4 c-3 -9 -6 -20 -6 -25 0 -6 -4 -7 -10 -4
-16 10 -12 45 6 45 11 0 14 -5 10 -16z m52 -147 c3 -35 2 -37 -27 -37 -37 0
-43 26 -8 40 l22 9 -22 0 c-16 1 -23 7 -23 20 0 16 5 18 28 12 22 -6 28 -14
30 -44z m-228 -74 c0 -27 -3 -34 -11 -26 -7 7 -9 23 -5 37 9 37 16 32 16 -11z
m234 12 c4 -10 -2 -19 -17 -25 l-22 -9 23 0 c31 -1 29 -31 -2 -31 -25 0 -36
16 -36 56 0 19 5 24 24 24 13 0 27 -7 30 -15z m16 -82 c0 -5 3 -18 6 -30 6
-20 3 -23 -25 -23 -36 0 -42 16 -8 23 19 4 18 4 -5 6 -40 2 -38 31 2 31 17 0
30 -3 30 -7z m-359 -84 c23 -11 39 -22 37 -24 -7 -7 -188 8 -188 15 0 12 44
29 78 29 18 1 51 -8 73 -20z m374 10 c9 -13 5 -16 -25 -21 -17 -2 -26 2 -28
15 -3 12 3 17 22 17 14 0 28 -5 31 -11z m15 -49 c0 -5 -12 -10 -26 -10 -14 0
-23 4 -19 10 3 6 15 10 26 10 10 0 19 -4 19 -10z m-375 -14 c28 -7 72 -23 99
-34 42 -19 48 -25 42 -44 -3 -13 -6 -27 -6 -33 0 -6 -53 -10 -137 -10 -147 0
-211 -14 -248 -55 -15 -17 -16 -24 -7 -46 16 -33 15 -37 -8 -64 l-21 -24 -21
22 c-12 12 -19 25 -14 29 4 4 11 1 16 -7 15 -24 21 -5 7 24 -10 22 -17 26 -40
22 -35 -7 -74 8 -81 32 -10 29 28 106 64 132 66 47 140 70 225 70 44 0 103 -6
130 -14z m273 -79 c25 -23 27 -44 10 -82 -9 -21 -18 -25 -54 -25 -34 0 -47 5
-63 26 -26 33 -26 39 -1 64 11 11 17 26 13 35 -5 14 0 15 33 9 22 -3 49 -16
62 -27z m159 -103 c-3 -3 -12 -4 -19 -1 -8 3 -5 6 6 6 11 1 17 -2 13 -5z
m-617 -14 c0 -5 -13 -10 -30 -10 -16 0 -30 5 -30 10 0 6 14 10 30 10 17 0 30
-4 30 -10z m80 0 c0 -5 -11 -10 -25 -10 -14 0 -25 5 -25 10 0 6 11 10 25 10
14 0 25 -4 25 -10z m560 -25 c0 -16 -35 -21 -44 -6 -8 12 4 21 26 21 10 0 18
-7 18 -15z m-470 -10 c0 -8 -6 -15 -14 -15 -17 0 -28 14 -19 24 12 12 33 6 33
-9z m68 -3 c3 -9 -3 -13 -19 -10 -12 1 -24 9 -27 16 -3 9 3 13 19 10 12 -1 24
-9 27 -16z m-203 -3 c4 -6 5 -13 2 -16 -8 -7 -47 7 -47 18 0 13 37 11 45 -2z
m75 1 c0 -5 -9 -10 -19 -10 -11 0 -23 5 -26 10 -4 6 5 10 19 10 14 0 26 -4 26
-10z m550 -31 c0 -12 -57 -12 -65 0 -3 5 7 11 22 13 32 4 43 1 43 -13z m-364
1 c13 0 24 -4 24 -10 0 -12 -77 -13 -84 -1 -8 12 6 22 22 16 7 -3 25 -5 38 -5z
m-288 -18 c4 -14 -34 -16 -42 -3 -6 10 13 21 28 17 6 -1 12 -8 14 -14z m72 9
c0 -15 -16 -22 -34 -15 -25 9 -19 24 9 24 14 0 25 -4 25 -9z m70 -1 c0 -5 -9
-10 -19 -10 -11 0 -23 5 -26 10 -4 6 5 10 19 10 14 0 26 -4 26 -10z m70 0 c0
-5 -11 -10 -25 -10 -14 0 -25 5 -25 10 0 6 11 10 25 10 14 0 25 -4 25 -10z
m-352 -23 c12 -13 19 -27 15 -30 -7 -8 -53 31 -53 45 0 15 16 8 38 -15z m822
-37 c27 -53 26 -60 -15 -60 -42 0 -67 32 -38 49 16 9 16 10 -4 11 -16 0 -23 6
-23 20 0 16 7 20 30 20 24 0 33 -7 50 -40z m-848 13 c10 -9 18 -23 18 -31 0
-12 -6 -10 -25 8 -38 35 -31 58 7 23z m138 -4 c0 -11 -27 -12 -34 0 -3 4 -3
11 0 14 8 8 34 -3 34 -14z m502 4 c18 -19 -167 -17 -207 2 -28 13 -21 14 82
12 74 -1 116 -6 125 -14z m-177 -26 c54 -23 62 -24 77 -10 13 12 34 14 88 11
57 -3 74 -8 93 -27 l22 -23 -87 7 c-63 5 -88 4 -88 -4 0 -13 3 -14 108 -11 79
2 112 -8 112 -31 0 -5 -35 -9 -77 -9 l-77 0 65 -67 c88 -92 128 -147 125 -169
-2 -11 -1 -14 1 -8 2 6 31 14 65 18 92 9 118 8 118 -8 0 -19 -127 -30 -149
-13 -14 11 -14 10 -1 -7 13 -16 23 -17 92 -11 43 3 78 4 78 2 0 -3 3 -12 6
-20 4 -12 -8 -15 -60 -19 -36 -2 -68 -7 -72 -10 -3 -4 6 -29 21 -57 23 -42 26
-53 15 -66 -10 -13 -9 -15 9 -15 27 0 36 -22 21 -50 -15 -28 -4 -39 14 -14 14
18 15 18 25 -9 14 -35 14 -47 1 -47 -5 0 -10 -12 -10 -27 1 -24 2 -25 11 -10
26 44 41 -6 15 -52 -12 -22 -15 -18 -69 92 -91 189 -179 319 -294 435 -60 61
-117 109 -140 118 -21 9 -50 28 -65 42 -23 21 -28 23 -28 9 0 -19 -15 -23 -26
-6 -3 6 -18 9 -32 6 -15 -3 -36 2 -50 11 -24 15 -24 15 -18 -6 6 -18 4 -21 -9
-16 -9 4 -28 1 -41 -7 -21 -11 -29 -11 -45 0 -19 11 -20 10 -14 -8 9 -30 -16
-27 -54 5 -36 30 -42 59 -11 51 15 -4 20 -1 18 11 -2 11 4 17 17 17 11 0 25 7
32 15 10 12 15 13 32 2 18 -10 21 -10 21 4 0 26 138 13 215 -19z m-479 -18
c15 -17 16 -23 5 -40 -7 -12 -13 -39 -13 -61 0 -22 -5 -41 -12 -44 -7 -3 -10
-30 -9 -74 0 -39 -3 -72 -7 -75 -14 -9 -62 56 -54 74 3 9 6 21 6 26 -2 37 -2
54 4 88 3 20 10 40 15 43 5 3 9 14 9 25 0 10 5 19 11 19 6 0 8 9 4 20 -9 27
16 26 41 -1z m114 13 c0 -13 -12 -22 -22 -16 -10 6 -1 24 13 24 5 0 9 -4 9 -8z
m-45 -22 c3 -5 1 -10 -4 -10 -6 0 -11 5 -11 10 0 6 2 10 4 10 3 0 8 -4 11 -10z
m-30 -40 c3 -5 1 -10 -4 -10 -6 0 -11 5 -11 10 0 6 2 10 4 10 3 0 8 -4 11 -10z
m100 -21 c31 -28 38 -49 16 -49 -14 0 -71 62 -65 72 8 12 10 11 49 -23z m775
-9 c11 -21 20 -44 20 -50 0 -15 -36 -12 -50 5 -11 13 -10 18 6 30 18 13 17 14
-12 15 -17 0 -37 6 -43 14 -10 12 -7 15 16 19 15 2 31 5 35 6 4 0 17 -17 28
-39z m-792 -33 c15 -16 20 -27 13 -31 -21 -14 -89 43 -76 63 8 14 32 2 63 -32z
m719 -2 c8 -24 2 -25 -70 -18 -42 4 -68 11 -71 19 -4 11 10 14 65 14 53 0 71
-4 76 -15z m-753 -34 c18 -18 24 -31 17 -36 -14 -8 -71 32 -71 51 0 23 24 16
54 -15z m863 -18 c4 -12 -169 -29 -187 -18 -5 3 -10 13 -10 21 0 12 16 14 97
12 57 -2 98 -8 100 -15z m-890 -15 c24 -22 31 -58 13 -58 -12 0 -60 48 -60 60
0 8 11 20 19 20 2 0 15 -10 28 -22z m903 -23 c7 -9 10 -18 7 -22 -13 -12 -152
-20 -159 -9 -15 25 -5 31 59 37 38 3 71 6 74 7 4 1 12 -5 19 -13z m-918 -32
c15 -15 28 -37 28 -50 0 -28 -4 -28 -41 -2 -21 14 -29 29 -29 50 0 36 6 36 42
2z m412 -59 c70 -62 93 -90 82 -102 -3 -2 -36 23 -73 57 -97 87 -97 76 -1 -17
45 -43 77 -81 72 -85 -5 -3 -59 41 -119 99 -59 57 -102 104 -94 104 8 0 21 -6
28 -12 10 -11 11 -10 6 5 -14 35 25 16 99 -49z m-149 26 c14 -16 15 -20 4 -20
-16 0 -39 19 -39 32 0 14 16 9 35 -12z m685 10 c24 -15 8 -20 -75 -23 -53 -1
-79 2 -82 10 -3 8 11 13 39 16 82 7 103 7 118 -3z m-712 -48 c2 -7 -3 -12 -11
-12 -17 0 -49 34 -40 43 8 8 45 -15 51 -31z m-308 -18 c23 -27 31 -44 27 -62
-3 -18 2 -32 20 -50 30 -30 38 -24 19 14 -21 42 -40 113 -32 121 3 4 19 -2 34
-14 19 -14 30 -34 36 -66 7 -37 20 -57 68 -104 33 -32 56 -50 52 -40 -8 21 10
22 47 3 16 -8 32 -10 40 -5 8 5 22 6 31 3 10 -3 26 0 38 6 17 9 24 6 46 -15
26 -26 24 -51 -4 -40 -8 3 -18 1 -22 -5 -4 -6 -46 -13 -93 -16 -74 -4 -93 -1
-133 17 -61 29 -190 162 -186 193 1 13 -7 31 -18 41 -20 18 -28 55 -11 55 5 0
23 -16 41 -36z m280 -9 c13 -14 20 -28 16 -32 -9 -10 -36 8 -54 35 -13 19 -13
22 0 22 8 0 25 -11 38 -25z m136 -8 c15 -13 25 -29 23 -36 -3 -9 -14 -5 -37
14 -32 26 -41 45 -23 45 6 0 22 -10 37 -23z m-46 -16 c7 -14 7 -22 -1 -27 -13
-8 -41 24 -33 37 9 15 23 10 34 -10z m-31 -86 c48 -55 39 -70 -22 -38 -18 9
-37 16 -43 15 -17 -3 -59 91 -48 109 7 11 69 -37 113 -86z m85 40 c12 -9 16
-20 12 -32 -7 -17 -9 -16 -27 6 -31 38 -22 54 15 26z m679 -9 c4 -11 -10 -15
-58 -21 -68 -7 -85 -3 -85 21 0 20 135 20 143 0z m-581 -23 c25 -24 37 -53 22
-53 -12 0 -74 56 -74 68 0 20 22 14 52 -15z m-115 -18 c10 -27 -6 -30 -29 -7
l-22 22 22 0 c12 0 25 -7 29 -15z m114 -58 c-8 -8 -19 -3 -36 13 -39 37 -31
56 10 24 25 -19 33 -30 26 -37z m613 25 c47 -91 201 -471 193 -478 -3 -3 -27
-6 -53 -7 -39 -2 -49 1 -52 16 -2 12 3 17 20 18 19 1 18 2 -6 8 -47 10 -45 31
3 31 23 0 41 5 41 11 0 7 -18 10 -47 7 -37 -2 -48 0 -51 13 -2 11 9 19 40 27
l43 11 -50 -2 c-39 -2 -50 1 -53 15 -2 12 8 19 40 27 l43 10 -47 -2 c-82 -2
-93 38 -13 46 36 3 35 4 -12 5 -47 2 -54 5 -68 32 -22 43 -20 47 30 54 61 10
57 21 -7 21 -64 0 -74 19 -16 30 l43 8 -50 6 c-61 8 -84 19 -64 32 8 5 29 9
47 9 17 0 32 3 32 8 0 4 -19 6 -43 4 -30 -3 -47 1 -56 12 -12 14 -8 16 32 16
25 0 49 5 53 11 4 8 -11 10 -52 8 -49 -3 -59 -1 -62 14 -3 15 5 17 60 17 63 0
63 -1 82 -38z m-669 -24 c17 -20 23 -34 15 -36 -14 -5 -60 37 -60 55 0 22 17
15 45 -19z m475 -115 c-1 -26 -76 -215 -129 -323 -12 -25 -16 -37 -9 -28 19
24 48 75 74 131 13 26 25 47 28 47 9 0 -33 -101 -71 -167 -19 -35 -31 -63 -26
-63 8 0 39 49 77 123 11 20 23 37 28 37 9 0 -33 -98 -63 -147 -12 -19 -19 -37
-16 -40 4 -3 16 11 28 31 32 54 35 36 5 -25 -32 -63 -27 -75 8 -22 29 41 35
30 10 -18 -15 -29 -14 -32 7 -50 l22 -19 -21 0 c-23 0 -32 -20 -9 -20 16 -1
-23 -30 -39 -30 -28 0 -46 32 -40 72 3 21 3 38 0 38 -3 0 -20 -12 -37 -26 -23
-20 -32 -22 -38 -12 -15 23 -10 88 11 130 11 23 20 44 20 46 0 2 -22 -16 -49
-41 -45 -40 -56 -45 -112 -50 -75 -7 -89 -2 -89 30 0 13 4 22 9 19 4 -3 13 6
20 20 15 34 14 36 -8 24 -24 -12 -41 -13 -41 -1 0 14 51 23 65 11 10 -9 11
-19 4 -38 l-9 -27 19 23 c11 12 24 22 29 22 5 0 12 7 16 15 3 8 11 15 18 15 7
0 21 12 32 26 l19 26 -24 -15 c-43 -27 -101 -30 -159 -8 -30 11 -56 19 -58 16
-4 -4 15 -13 63 -31 17 -6 16 -8 -14 -17 -31 -10 -36 -8 -57 17 -28 32 -32 87
-8 107 14 11 18 11 29 -4 7 -10 16 -14 19 -9 3 5 57 10 120 11 104 2 116 0
134 -19 11 -12 26 -18 34 -15 9 4 19 2 23 -4 3 -6 10 -11 15 -11 12 0 53 75
91 168 18 45 37 82 41 82 4 0 8 -3 8 -7z m168 -124 c8 -21 -7 -89 -20 -89 -11
0 -19 56 -12 84 8 31 22 34 32 5z m1182 17 c0 -11 -19 -15 -25 -6 -3 5 1 10 9
10 9 0 16 -2 16 -4z m-1294 -68 c4 -23 0 -48 -11 -72 -16 -34 -17 -39 -2 -53
13 -13 19 -14 31 -4 25 21 30 -8 6 -34 -26 -28 -23 -59 8 -63 27 -4 53 41 34
60 -15 15 -16 62 -2 53 6 -3 10 -17 10 -30 0 -13 5 -25 11 -27 8 -3 2 -38 -19
-113 -55 -200 -87 -349 -78 -372 4 -9 0 -25 -7 -37 -18 -28 -30 -89 -16 -81 7
5 8 -6 4 -32 -3 -21 -8 -53 -11 -72 -5 -31 -7 -32 -21 -18 -14 14 -14 20 0 61
8 24 13 53 11 63 -3 10 4 63 15 117 12 55 21 106 20 115 -1 20 -11 -16 -40
-146 -15 -68 -27 -103 -36 -103 -7 0 -13 -9 -13 -20 0 -11 5 -20 11 -20 9 0
10 -24 6 -86 -5 -71 -4 -84 7 -75 8 7 12 21 9 31 -3 11 -1 20 5 20 6 0 11 -54
14 -134 3 -128 5 -137 36 -196 18 -35 30 -65 28 -67 -2 -3 -22 11 -43 31 -26
23 -52 64 -77 118 -21 46 -44 95 -52 110 -23 43 -35 181 -24 278 5 47 10 105
9 130 l-1 45 -16 -35 c-11 -25 -16 -74 -18 -175 -3 -134 -11 -174 -26 -123
-17 64 5 262 41 368 41 118 36 141 -14 63 -69 -108 -263 -234 -369 -239 -28
-1 -58 -5 -66 -7 -35 -12 -110 -16 -110 -6 0 5 7 26 15 45 11 26 11 34 2 32
-6 -3 -16 -21 -21 -42 -9 -34 -13 -37 -40 -34 -23 2 -32 9 -34 25 -4 26 28 91
57 117 20 18 29 56 14 56 -3 0 -15 -7 -25 -17 -17 -15 -18 -15 -18 1 0 10 11
36 25 59 23 40 28 43 92 55 86 16 171 56 247 116 33 25 64 46 70 46 16 0 -80
-94 -124 -121 -22 -13 -40 -27 -40 -30 0 -15 48 -74 63 -77 10 -2 52 27 103
72 48 42 92 76 98 76 6 -1 -24 -34 -66 -74 -43 -40 -78 -77 -78 -80 0 -15 94
61 146 117 30 32 54 54 54 49 0 -5 -39 -49 -86 -97 -47 -48 -83 -89 -81 -91 2
-3 28 17 58 43 l54 47 -40 -44 c-22 -24 -51 -54 -65 -66 -21 -20 -22 -23 -7
-24 9 0 17 -6 17 -12 0 -15 49 42 50 57 0 15 80 91 103 99 11 3 21 15 24 26 4
13 14 20 31 20 14 0 38 12 54 27 25 24 28 34 28 89 0 55 2 62 18 57 23 -6 44
19 36 41 -3 9 -17 16 -32 16 -24 0 -24 1 -9 18 10 10 17 30 17 44 0 14 6 38
14 54 19 39 28 94 16 94 -6 0 -10 10 -10 22 0 33 20 8 26 -34z m-49 20 c-3 -8
-6 -5 -6 6 -1 11 2 17 5 13 3 -3 4 -12 1 -19z m1377 -67 c-7 -8 -12 4 -18 44
l-5 40 13 -40 c7 -22 12 -42 10 -44z m-65 65 c-12 -10 -59 -15 -59 -6 0 5 14
10 32 10 17 0 29 -2 27 -4z m-1479 -16 c0 -5 -2 -10 -4 -10 -3 0 -8 5 -11 10
-3 6 -1 10 4 10 6 0 11 -4 11 -10z m26 -37 c-10 -10 -19 5 -10 18 6 11 8 11
12 0 2 -7 1 -15 -2 -18z m-46 7 c0 -5 -4 -10 -10 -10 -5 0 -10 5 -10 10 0 6 5
10 10 10 6 0 10 -4 10 -10z m264 -24 c-6 -25 -24 -37 -24 -16 0 13 23 50 28
46 1 -2 0 -15 -4 -30z m1172 7 c-10 -10 -19 5 -10 18 6 11 8 11 12 0 2 -7 1
-15 -2 -18z m-1060 -25 c-7 -45 -12 -55 -22 -45 -10 9 7 87 18 87 7 0 8 -15 4
-42z m1939 2 c11 -17 -5 -32 -21 -19 -7 6 -11 15 -8 20 7 12 21 11 29 -1z
m-2025 -16 c0 -8 -4 -12 -10 -9 -5 3 -10 10 -10 16 0 5 5 9 10 9 6 0 10 -7 10
-16z m1130 1 c0 -8 -4 -15 -10 -15 -5 0 -10 7 -10 15 0 8 5 15 10 15 6 0 10
-7 10 -15z m40 5 c0 -5 -5 -10 -11 -10 -5 0 -7 5 -4 10 3 6 8 10 11 10 2 0 4
-4 4 -10z m114 -16 c3 -9 6 -23 5 -32 0 -14 -2 -14 -8 2 -6 15 -14 2 -39 -59
-18 -43 -30 -81 -27 -84 3 -3 8 5 12 17 3 12 9 22 14 22 4 0 1 -19 -7 -42 -8
-23 -12 -49 -9 -57 3 -8 2 -17 -2 -20 -4 -3 -23 -53 -42 -111 -19 -58 -39
-116 -44 -130 -6 -14 -9 -33 -8 -43 1 -10 -5 -27 -15 -38 -10 -11 -12 -19 -6
-19 17 0 15 -25 -3 -40 -13 -11 -13 -15 -3 -21 10 -7 11 -12 1 -29 -18 -27
-17 -54 2 -47 11 5 12 1 5 -19 -7 -17 -7 -23 0 -19 15 9 40 -14 40 -36 0 -21
-16 -26 -23 -6 -3 6 -3 -2 -1 -18 4 -24 0 -36 -21 -55 -26 -24 -27 -25 -41 -6
-8 11 -14 28 -14 39 0 10 -5 17 -12 15 -12 -4 -41 -135 -34 -153 3 -5 5 -2 5
7 1 9 6 29 11 44 l11 27 17 -34 c22 -44 66 -51 118 -18 61 37 71 101 24 149
-16 16 -35 48 -41 70 -7 22 -16 37 -22 33 -7 -4 -7 1 -2 13 4 10 12 50 16 88
12 106 34 191 78 303 51 131 80 188 91 177 5 -5 18 -43 29 -84 11 -41 35 -127
54 -190 54 -184 71 -287 71 -445 0 -125 -3 -149 -27 -221 -29 -89 -84 -160
-117 -151 -14 4 -19 -4 -24 -34 -9 -57 -27 -89 -49 -89 -14 0 -17 4 -12 18 24
58 19 62 -39 33 -37 -19 -76 -56 -94 -87 -5 -9 -21 -16 -36 -16 -15 0 -30 -7
-33 -15 -4 -11 -10 -8 -19 13 -12 28 -12 27 -13 -24 -1 -39 2 -52 12 -47 6 4
4 0 -5 -8 -10 -8 -18 -21 -18 -30 0 -9 -4 -19 -10 -22 -6 -4 -10 21 -11 67 0
40 -3 81 -7 90 -4 9 -7 -27 -8 -80 -1 -153 -44 -213 -126 -179 -43 18 -64 43
-83 96 -29 82 -14 111 20 39 63 -136 196 -42 156 110 -9 32 -18 43 -37 48 -46
12 -78 -39 -58 -91 6 -14 10 -11 20 14 22 51 64 34 64 -26 0 -104 -94 -128
-121 -30 -20 76 12 214 53 230 7 3 56 2 108 0 112 -6 205 13 258 53 20 16 41
24 53 21 17 -4 18 -3 8 9 -18 22 -40 17 -74 -16 -31 -30 -99 -50 -172 -50
l-35 0 4 50 c3 28 3 50 1 50 -2 0 -10 -15 -18 -32 -15 -35 -19 -21 -9 31 4 17
13 31 20 31 8 0 14 7 14 15 0 8 -8 15 -18 15 -14 0 -21 -12 -29 -47 l-10 -48
-2 40 c-2 51 -21 27 -21 -27 0 -32 -14 -58 -25 -47 -2 2 3 31 11 64 7 33 29
137 47 232 l34 171 -36 -5 c-47 -8 -52 -13 -13 -13 34 0 35 0 26 -24 -4 -12
-20 -16 -55 -16 -46 0 -59 7 -42 24 4 4 8 13 9 19 0 7 2 20 2 30 2 13 11 17
40 18 20 0 46 5 57 10 15 7 6 8 -32 6 l-52 -4 5 31 c10 55 11 56 63 56 27 0
53 5 56 11 5 7 -9 10 -44 8 -28 -2 -51 0 -51 4 0 4 0 12 0 17 0 6 26 11 58 12
l57 1 -55 6 c-59 6 -61 10 -40 67 8 21 16 24 64 24 34 0 56 -5 58 -12 3 -7 12
7 21 32 59 160 99 264 127 325 18 39 36 80 41 93 10 26 24 29 33 6z m706 -9
c0 -8 -4 -15 -10 -15 -5 0 -10 7 -10 15 0 8 5 15 10 15 6 0 10 -7 10 -15z
m-1860 -12 c0 -23 -22 -83 -30 -83 -13 0 -12 4 2 51 10 34 28 54 28 32z m1800
-13 c0 -11 -4 -20 -10 -20 -5 0 -10 9 -10 20 0 11 5 20 10 20 6 0 10 -9 10
-20z m30 5 c0 -8 -4 -15 -10 -15 -5 0 -10 7 -10 15 0 8 5 15 10 15 6 0 10 -7
10 -15z m-842 -6 c-2 -6 -8 -10 -13 -10 -5 0 -11 4 -13 10 -2 6 4 11 13 11 9
0 15 -5 13 -11z m32 1 c0 -5 -4 -10 -10 -10 -5 0 -10 5 -10 10 0 6 5 10 10 10
6 0 10 -4 10 -10z m70 6 c0 -3 -4 -8 -10 -11 -5 -3 -10 -1 -10 4 0 6 5 11 10
11 6 0 10 -2 10 -4z m-120 -51 c0 -8 -4 -15 -10 -15 -5 0 -10 7 -10 15 0 8 5
15 10 15 6 0 10 -7 10 -15z m68 3 c-5 -15 -58 -24 -58 -10 0 15 12 22 38 22
14 0 22 -5 20 -12z m32 4 c0 -5 -7 -17 -16 -28 -14 -17 -15 -17 -10 -1 3 10 6
23 6 28 0 5 5 9 10 9 6 0 10 -4 10 -8z m-2099 -19 c-20 -36 -59 -78 -66 -71
-10 9 47 88 63 88 9 0 10 -5 3 -17z m34 -12 c-17 -34 -35 -48 -35 -29 0 18 28
58 41 58 5 0 3 -13 -6 -29z m55 10 c0 -15 -38 -56 -45 -49 -8 8 23 58 36 58 5
0 9 -4 9 -9z m970 -3 c0 -27 -21 -88 -30 -88 -13 0 -12 14 2 61 11 37 28 53
28 27z m134 -4 c8 -22 9 -22 -49 -25 -40 -3 -50 0 -53 13 -2 13 6 18 35 21 21
2 43 4 49 5 7 1 15 -5 18 -14z m-1076 -29 c-6 -14 -17 -25 -25 -25 -17 0 -16
10 4 32 23 26 35 22 21 -7z m892 -122 c32 -89 82 -289 101 -397 18 -105 8
-197 -26 -247 l-28 -40 24 -25 c14 -13 41 -27 60 -30 29 -5 41 -1 67 21 18 15
35 25 37 23 10 -10 26 -165 23 -218 l-3 -55 -40 -3 c-56 -5 -119 16 -168 54
-23 19 -52 34 -65 34 -23 0 -65 -34 -74 -61 -10 -25 -41 3 -73 67 -26 52 -30
71 -33 171 -5 148 13 261 98 607 22 89 24 108 10 86 -22 -35 -9 16 14 54 18
28 23 48 20 75 l-5 36 16 -35 c9 -19 29 -72 45 -117z m1028 120 c-2 -13 -15
-19 -46 -21 -44 -3 -45 -3 -36 22 4 11 19 16 46 16 32 0 39 -3 36 -17z m-2148
-1 c0 -18 -63 -106 -67 -94 -6 15 44 102 57 102 6 0 10 -4 10 -8z m270 3 c0
-19 -95 -165 -108 -165 -12 0 -12 3 1 23 9 12 32 50 52 85 20 34 40 62 45 62
6 0 10 -2 10 -5z m1052 -15 c4 -31 0 -36 -37 -42 l-40 -6 45 1 c35 1 46 -2 48
-16 3 -13 -3 -17 -25 -17 -15 0 -38 -3 -49 -6 -18 -5 -24 1 -37 40 l-15 45 41
4 c23 2 48 4 55 5 6 1 13 -2 14 -8z m-1302 -15 c0 -8 -4 -15 -10 -15 -5 0 -7
7 -4 15 4 8 8 15 10 15 2 0 4 -7 4 -15z m1990 11 c0 -3 -4 -8 -10 -11 -5 -3
-10 -1 -10 4 0 6 5 11 10 11 6 0 10 -2 10 -4z m-820 -76 c-13 -53 -30 -67 -30
-25 0 32 31 104 37 87 3 -7 -1 -35 -7 -62z m-1075 -15 c-15 -25 -31 -45 -37
-45 -13 0 -6 18 28 72 36 56 43 33 9 -27z m148 13 c-26 -45 -50 -51 -28 -7 24
47 38 64 43 50 2 -6 -5 -25 -15 -43z m1892 35 c-4 -10 -11 -33 -17 -50 -8 -30
-13 -33 -46 -33 -20 0 -44 -5 -52 -11 -11 -7 -3 -9 33 -7 26 2 47 1 47 -1 0
-2 -9 -35 -20 -72 l-21 -69 -55 0 c-47 0 -55 3 -52 18 2 13 17 18 58 23 l55 6
-52 1 c-29 1 -53 4 -53 6 0 27 16 36 63 36 58 0 59 6 4 13 -21 3 -41 8 -44 11
-7 7 16 65 34 87 7 8 13 25 13 37 0 20 5 22 56 22 50 0 55 -2 49 -17z m345 7
c0 -5 -2 -10 -4 -10 -3 0 -8 5 -11 10 -3 6 -1 10 4 10 6 0 11 -4 11 -10z
m-2410 -18 c0 -11 -22 -32 -32 -32 -5 0 -4 9 2 20 11 20 30 28 30 12z m80 -12
c0 -5 -4 -10 -10 -10 -5 0 -10 5 -10 10 0 6 5 10 10 10 6 0 10 -4 10 -10z
m1820 -5 c-7 -8 -19 -15 -27 -15 -13 0 -13 3 -3 15 7 8 19 15 27 15 13 0 13
-3 3 -15z m-2035 -56 c-31 -43 -40 -49 -32 -19 3 11 1 20 -4 20 -5 0 -9 5 -9
11 0 6 6 9 14 6 9 -4 22 5 32 21 11 17 19 22 22 14 2 -7 -8 -31 -23 -53z m28
-29 c-26 -47 -43 -63 -43 -41 0 17 64 113 68 102 2 -6 -9 -33 -25 -61z m1240
30 c-3 -11 -9 -23 -14 -26 -10 -6 -12 29 -2 39 13 13 21 7 16 -13z m-1083 1
c0 -12 -20 -25 -27 -18 -7 7 6 27 18 27 5 0 9 -4 9 -9z m-120 -43 c0 -19 -38
-78 -50 -78 -14 0 -13 5 10 50 20 39 40 53 40 28z m1211 -79 c-15 -33 -20 -38
-20 -21 -1 30 31 102 36 81 2 -8 -5 -35 -16 -60z m-31 51 c0 -5 -4 -10 -10
-10 -5 0 -10 5 -10 10 0 6 5 10 10 10 6 0 10 -4 10 -10z m-1170 -51 c-20 -37
-40 -52 -40 -28 0 20 41 79 51 74 5 -4 0 -24 -11 -46z m1358 34 c3 -9 -12 -13
-52 -13 -44 0 -56 3 -56 16 0 12 10 14 52 12 30 -2 53 -8 56 -15z m-1304 -20
c4 -4 26 -9 48 -10 23 -2 43 -4 44 -6 6 -6 -49 -107 -58 -107 -11 0 -10 27 2
51 8 13 7 19 0 19 -6 0 -16 -11 -22 -25 -17 -38 -41 -33 -33 8 7 32 7 32 -10
10 -17 -25 -35 -30 -35 -12 0 16 40 79 49 79 4 0 11 -3 15 -7z m1314 -20 c2
-9 -11 -13 -47 -13 -48 0 -68 9 -54 24 12 12 96 2 101 -11z m-883 -3 c3 -5 -1
-10 -10 -10 -9 0 -13 5 -10 10 3 6 8 10 10 10 2 0 7 -4 10 -10z m761 -26 c-4
-9 -11 -36 -17 -60 -11 -41 -29 -61 -29 -31 0 26 32 107 42 107 6 0 7 -7 4
-16z m138 -26 c14 -52 9 -58 -44 -58 -43 0 -50 3 -50 19 0 16 8 21 43 24 40 3
40 4 -10 5 -40 2 -53 6 -53 17 0 11 13 15 54 15 47 0 54 -3 60 -22z m1272 -20
c4 -24 7 -50 6 -58 -1 -8 4 -25 10 -37 13 -26 8 -36 -15 -27 -20 7 -25 22 -33
99 -6 54 -4 65 8 65 10 0 18 -15 24 -42z m-1390 -41 c-10 -41 -37 -99 -43 -93
-3 3 4 30 17 61 23 56 37 73 26 32z m1331 -9 c-3 -8 -6 -5 -6 6 -1 11 2 17 5
13 3 -3 4 -12 1 -19z m-1197 -13 c0 -11 -11 -15 -40 -15 -29 0 -40 4 -40 15 0
11 11 15 40 15 29 0 40 -4 40 -15z m-102 -17 c-2 -6 -10 -14 -16 -16 -7 -2
-10 2 -6 12 7 18 28 22 22 4z m130 -72 c7 -32 11 -60 10 -61 -2 -2 -16 -5 -33
-7 -38 -4 -42 23 -5 33 25 6 25 6 -4 10 -36 5 -47 29 -14 30 l23 0 -25 10
c-50 20 -48 52 3 47 30 -3 32 -6 45 -62z m-117 -43 c-18 -69 -33 -115 -80
-237 -7 -16 -13 -27 -16 -25 -2 3 16 68 40 144 25 77 45 145 45 152 0 6 5 24
11 40 21 51 20 6 0 -74z m-35 50 c-10 -10 -19 5 -10 18 6 11 8 11 12 0 2 -7 1
-15 -2 -18z m1715 4 c-1 -12 -15 -9 -19 4 -3 6 1 10 8 8 6 -3 11 -8 11 -12z
m-1169 -19 c-7 -7 -12 -8 -12 -2 0 6 3 14 7 17 3 4 9 5 12 2 2 -3 -1 -11 -7
-17z m852 -1 c6 -9 7 -19 3 -23 -9 -9 -37 15 -37 33 0 18 20 12 34 -10z
m-1423 -84 c-9 -15 -10 -13 -11 14 0 17 3 40 8 50 5 14 8 11 10 -14 2 -18 -1
-41 -7 -50z m61 -92 c-21 -63 -45 -117 -52 -119 -9 -3 -11 1 -5 14 4 11 26 75
49 143 24 71 42 113 43 100 2 -13 -14 -75 -35 -138z m1352 133 c9 -3 16 -18
16 -32 0 -24 0 -25 -20 -7 -11 10 -20 24 -20 32 0 15 2 15 24 7z m-1221 -39
c8 -19 -9 -28 -39 -21 -30 8 -31 23 -1 29 12 2 25 5 28 6 4 0 9 -6 12 -14z
m1225 -27 c7 -7 12 -23 12 -37 0 -23 -1 -24 -20 -6 -11 10 -20 26 -20 37 0 21
11 23 28 6z m-1302 -62 c-19 -47 -30 -46 -21 1 9 47 15 57 27 45 6 -6 4 -23
-6 -46z m88 38 c5 -12 -1 -15 -26 -12 -42 4 -50 28 -10 28 18 0 32 -6 36 -16z
m336 12 c0 -3 -4 -8 -10 -11 -5 -3 -10 -1 -10 4 0 6 5 11 10 11 6 0 10 -2 10
-4z m870 -51 c19 -20 21 -29 13 -47 -10 -23 -10 -22 -32 12 -36 59 -24 81 19
35z m-727 8 c14 -14 -17 -33 -54 -33 -50 0 -55 27 -6 33 17 2 37 5 43 5 6 1
14 -1 17 -5z m-469 -19 c5 -12 -1 -15 -26 -12 -42 4 -50 28 -10 28 18 0 32 -6
36 -16z m344 -16 c-2 -6 -15 -18 -28 -27 -21 -14 -23 -14 -16 -1 16 27 28 40
38 40 5 0 8 -5 6 -12z m342 2 c0 -5 -5 -10 -11 -10 -5 0 -7 5 -4 10 3 6 8 10
11 10 2 0 4 -4 4 -10z m-772 -48 c-12 -31 -28 -43 -28 -22 0 13 31 62 36 57 2
-2 -2 -18 -8 -35z m92 17 c0 -12 -47 -12 -55 0 -3 5 5 11 17 13 27 5 38 1 38
-13z m448 9 c-3 -7 -29 -16 -59 -19 l-54 -6 58 -1 c42 -2 57 -6 54 -14 -2 -9
-26 -13 -70 -14 -39 0 -72 -6 -82 -14 -8 -7 -18 -11 -20 -8 -3 3 15 24 40 47
39 36 51 41 91 41 32 0 44 -4 42 -12z m726 -13 c18 -27 22 -75 5 -75 -11 0
-39 60 -39 85 0 23 16 18 34 -10z m-466 -13 c2 -12 -1 -22 -7 -22 -6 0 -11 5
-11 11 0 8 -6 7 -17 -2 -9 -8 -14 -9 -11 -4 2 6 8 18 11 28 9 24 31 17 35 -11z
m-700 -19 c2 -9 -7 -13 -27 -13 -30 0 -46 11 -34 24 11 11 56 2 61 -11z m632
-2 c0 -5 -7 -14 -15 -21 -12 -10 -15 -10 -15 2 0 8 3 18 7 21 9 10 23 9 23 -2z
m520 -38 l21 -37 -21 -65 c-13 -36 -27 -75 -33 -86 -10 -18 -12 -16 -23 20
-15 50 -18 98 -4 90 6 -3 10 -17 10 -31 0 -13 5 -24 11 -24 7 0 8 7 4 18 -13
33 -18 92 -7 92 6 0 13 -8 16 -17 2 -10 2 3 -1 30 -3 26 -3 47 0 47 3 0 15
-17 27 -37z m-1900 -7 c0 -34 -17 -42 -22 -11 -5 25 -1 35 14 35 4 0 8 -11 8
-24z m1053 -10 c-22 -30 -43 -41 -43 -21 0 14 50 59 58 51 2 -3 -4 -16 -15
-30z m117 20 c0 -14 -29 -26 -67 -26 -40 0 -27 28 15 33 20 2 40 4 45 5 4 1 7
-4 7 -12z m-417 -11 c-3 -17 -27 -17 -48 0 -19 15 -18 15 15 13 19 -2 34 -7
33 -13z m-47 -31 c17 -14 17 -15 1 -10 -10 3 -23 6 -28 6 -5 0 -9 5 -9 10 0
14 13 12 36 -6z m424 -4 c13 -9 12 -12 -5 -26 -19 -14 -19 -15 3 -21 18 -4 20
-8 10 -14 -18 -12 -68 -11 -68 1 0 6 5 10 11 10 7 0 8 11 4 30 -5 25 -3 30 12
30 10 0 25 -5 33 -10z m-70 -9 c0 -12 -49 -51 -63 -51 -6 0 2 14 18 30 29 30
45 38 45 21z m-1040 -5 c0 -2 -3 -11 -6 -20 -9 -23 -24 -20 -24 4 0 11 7 20
15 20 8 0 15 -2 15 -4z m745 -26 c4 -6 -5 -10 -19 -10 -14 0 -26 5 -26 10 0 6
9 10 19 10 11 0 23 -4 26 -10z m-733 -45 c-2 -9 1 -14 7 -11 13 9 22 -9 15
-28 -9 -22 -24 -20 -24 3 0 11 -4 23 -10 26 -15 9 -12 37 3 32 6 -2 11 -12 9
-22z m994 -1 c-15 -14 -31 -23 -34 -20 -9 9 30 46 47 46 11 -1 8 -8 -13 -26z
m-251 6 c4 -6 -6 -10 -22 -9 -25 0 -26 1 -8 9 11 5 21 9 22 9 1 1 5 -3 8 -9z
m315 -20 c0 -5 -7 -10 -15 -10 -8 0 -15 5 -15 10 0 6 7 10 15 10 8 0 15 -4 15
-10z m40 0 c0 -5 -4 -10 -10 -10 -5 0 -10 5 -10 10 0 6 5 10 10 10 6 0 10 -4
10 -10z m-380 -26 c0 -8 -5 -12 -10 -9 -6 4 -8 11 -5 16 9 14 15 11 15 -7z
m279 -6 c-7 -13 -14 -43 -16 -68 -2 -25 -10 -51 -18 -59 -22 -23 -15 102 7
129 24 28 42 26 27 -2z m-959 -28 c0 -5 -4 -10 -10 -10 -5 0 -10 5 -10 10 0 6
5 10 10 10 6 0 10 -4 10 -10z m20 -30 c0 -11 -7 -20 -15 -20 -18 0 -19 12 -3
28 16 16 18 15 18 -8z m990 -10 c0 -5 -9 -10 -20 -10 -11 0 -20 5 -20 10 0 6
9 10 20 10 11 0 20 -4 20 -10z m-170 -30 c0 -5 -4 -10 -10 -10 -5 0 -10 5 -10
10 0 6 5 10 10 10 6 0 10 -4 10 -10z m-770 -25 c10 -12 10 -15 -4 -15 -9 0
-16 7 -16 15 0 8 2 15 4 15 2 0 9 -7 16 -15z m810 -4 c0 -20 -32 -37 -50 -26
-18 11 -11 23 10 18 14 -4 20 0 20 11 0 9 5 16 10 16 6 0 10 -9 10 -19z m50
-40 c0 -5 -7 -11 -15 -15 -15 -5 -20 5 -8 17 9 10 23 9 23 -2z m-52 -36 c2 -9
-1 -22 -7 -28 -8 -8 -11 -7 -11 5 0 9 -9 18 -21 21 -12 3 -18 10 -15 16 11 16
51 6 54 -14z m52 -4 c0 -5 -7 -11 -15 -15 -15 -5 -20 5 -8 17 9 10 23 9 23 -2z
m-70 -47 l25 -14 -29 2 c-16 2 -31 9 -34 16 -5 16 7 15 38 -4z m65 -4 c-3 -5
-10 -10 -16 -10 -5 0 -9 5 -9 10 0 6 7 10 16 10 8 0 12 -4 9 -10z m-47 -82
c-3 -36 -7 -44 -27 -46 -13 -2 -28 1 -34 7 -8 8 -3 11 16 11 15 0 27 5 27 10
0 6 -4 10 -10 10 -5 0 -10 7 -10 15 0 8 -7 15 -16 15 -8 0 -12 5 -9 10 3 6 20
10 36 10 29 0 30 -1 27 -42z m50 31 c-2 -6 -8 -10 -13 -10 -5 0 -11 4 -13 10
-2 6 4 11 13 11 9 0 15 -5 13 -11z"/>
<path d="M3082 5580 c0 -14 2 -19 5 -12 2 6 2 18 0 25 -3 6 -5 1 -5 -13z"/>
<path d="M3921 3290 c0 -8 6 -44 15 -80 9 -36 26 -123 39 -195 14 -77 23 -114
24 -91 1 22 -13 106 -29 188 -30 142 -48 210 -49 178z"/>
<path d="M2850 5693 c0 -5 9 -14 20 -21 11 -7 20 -8 20 -2 0 5 -9 14 -20 20
-11 6 -20 7 -20 3z"/>
<path d="M2860 5635 c0 -2 10 -10 23 -16 20 -11 21 -11 8 4 -13 16 -31 23 -31
12z"/>
<path d="M2870 5532 c0 -12 19 -26 26 -19 2 2 -2 10 -11 17 -9 8 -15 8 -15 2z"/>
<path d="M2880 5475 c13 -14 26 -25 28 -25 3 0 -5 11 -18 25 -13 14 -26 25
-28 25 -3 0 5 -11 18 -25z"/>
<path d="M2870 5441 c0 -5 7 -12 16 -15 14 -5 15 -4 4 9 -14 17 -20 19 -20 6z"/>
<path d="M2890 5384 c0 -15 27 -50 34 -43 4 3 -2 17 -13 30 -11 13 -20 19 -21
13z"/>
<path d="M2620 5175 c0 -8 2 -15 4 -15 2 0 6 7 10 15 3 8 1 15 -4 15 -6 0 -10
-7 -10 -15z"/>
<path d="M2570 5170 c0 -5 5 -10 11 -10 5 0 7 5 4 10 -3 6 -8 10 -11 10 -2 0
-4 -4 -4 -10z"/>
<path d="M2771 5154 c0 -11 3 -14 6 -6 3 7 2 16 -1 19 -3 4 -6 -2 -5 -13z"/>
<path d="M2410 5143 c0 -4 5 -15 10 -23 8 -13 10 -13 10 2 0 9 -4 20 -10 23
-5 3 -10 3 -10 -2z"/>
<path d="M3265 4380 c3 -5 8 -10 11 -10 2 0 4 5 4 10 0 6 -5 10 -11 10 -5 0
-7 -4 -4 -10z"/>
<path d="M3458 4163 c12 -2 32 -2 45 0 12 2 2 4 -23 4 -25 0 -35 -2 -22 -4z"/>
<path d="M2780 3980 c8 -5 20 -10 25 -10 6 0 3 5 -5 10 -8 5 -19 10 -25 10 -5
0 -3 -5 5 -10z"/>
<path d="M3217 3443 c-3 -5 -1 -17 4 -28 6 -17 7 -16 6 8 -1 28 -3 32 -10 20z"/>
<path d="M3250 3414 c0 -8 5 -12 10 -9 6 3 10 10 10 16 0 5 -4 9 -10 9 -5 0
-10 -7 -10 -16z"/>
<path d="M2536 3334 c-10 -25 1 -29 14 -5 6 12 7 21 1 21 -5 0 -12 -7 -15 -16z"/>
<path d="M2610 3326 c-15 -41 -10 -56 6 -17 8 18 13 36 10 39 -3 2 -10 -7 -16
-22z"/>
<path d="M2697 3343 c-4 -3 -7 -11 -7 -17 0 -6 5 -5 12 2 6 6 9 14 7 17 -3 3
-9 2 -12 -2z"/>
<path d="M2736 3334 c-4 -9 -4 -19 -1 -22 2 -3 7 3 11 12 4 9 4 19 1 22 -2 3
-7 -3 -11 -12z"/>
<path d="M2780 3335 c0 -8 2 -15 4 -15 2 0 6 7 10 15 3 8 1 15 -4 15 -6 0 -10
-7 -10 -15z"/>
<path d="M3194 3325 c-4 -14 -3 -29 0 -33 9 -8 26 18 26 41 0 26 -19 20 -26
-8z"/>
<path d="M3237 3335 c-4 -8 -2 -17 3 -20 6 -4 10 3 10 14 0 25 -6 27 -13 6z"/>
<path d="M2650 3325 c0 -8 2 -15 4 -15 2 0 6 7 10 15 3 8 1 15 -4 15 -6 0 -10
-7 -10 -15z"/>
<path d="M3176 3219 c-10 -51 -7 -147 4 -128 14 25 25 159 13 159 -6 0 -13
-14 -17 -31z"/>
<path d="M4370 3466 c0 -2 9 -6 20 -9 11 -3 20 -1 20 4 0 5 -9 9 -20 9 -11 0
-20 -2 -20 -4z"/>
<path d="M4333 3323 c9 -2 23 -2 30 0 6 3 -1 5 -18 5 -16 0 -22 -2 -12 -5z"/>
<path d="M4258 2673 c7 -3 16 -2 19 1 4 3 -2 6 -13 5 -11 0 -14 -3 -6 -6z"/>
<path d="M4463 3733 c9 -2 23 -2 30 0 6 3 -1 5 -18 5 -16 0 -22 -2 -12 -5z"/>
<path d="M4424 6196 c-37 -17 -48 -40 -32 -69 13 -22 13 -22 16 5 7 62 81 76
137 26 88 -76 132 -275 101 -452 -9 -49 -14 -91 -12 -94 11 -11 36 149 36 232
0 74 -6 113 -25 174 -28 88 -49 120 -108 163 -44 32 -67 35 -113 15z"/>
<path d="M4783 6061 c-139 -64 -113 -291 34 -291 45 0 77 20 98 60 23 45 19
78 -15 112 -25 25 -35 29 -63 23 -30 -6 -31 -5 -13 10 26 20 108 20 149 0 30
-15 89 -82 102 -115 3 -10 -11 -23 -47 -42 -100 -53 -173 -107 -212 -157 l-38
-51 -34 21 c-45 28 -78 20 -93 -22 -22 -64 -8 -91 23 -44 14 21 14 24 1 19 -8
-4 -15 -1 -15 5 0 16 26 24 54 17 14 -3 30 -20 40 -41 9 -19 19 -35 21 -35 2
0 17 26 32 57 80 165 335 308 490 275 52 -11 93 -34 93 -54 0 -11 -53 -10
-104 3 -53 13 -144 -7 -203 -44 -79 -50 -216 -224 -185 -235 19 -6 14 -22 -7
-22 -21 0 -41 -42 -23 -48 6 -2 0 -42 -18 -110 -31 -119 -46 -206 -32 -182 6
8 13 35 16 60 12 81 57 223 101 319 38 84 49 98 106 142 91 71 93 69 86 -50
-9 -124 -44 -262 -100 -388 -91 -204 -192 -403 -204 -403 -8 0 -13 -13 -13
-37 1 -59 46 -271 73 -343 45 -118 72 -180 78 -180 4 0 12 14 19 30 7 17 25
48 40 68 15 21 33 49 40 62 12 23 12 24 -4 11 -10 -8 -31 -35 -48 -59 -41 -60
-49 -44 -9 19 33 54 37 80 4 34 -10 -15 -28 -38 -41 -53 l-23 -27 21 40 c11
22 27 50 36 63 13 17 13 21 3 17 -8 -3 -25 -22 -39 -41 -13 -20 -26 -31 -28
-26 -4 13 36 72 101 151 44 53 45 53 25 73 -15 15 -22 17 -34 7 -27 -22 -27 0
-1 40 24 36 31 40 74 44 43 3 41 4 -16 5 -51 2 -61 5 -53 15 7 8 40 14 89 16
99 3 109 11 15 11 -69 0 -94 12 -53 25 11 3 22 12 25 20 4 12 26 15 97 15 l91
0 -7 -27 c-5 -23 -4 -25 9 -14 9 8 16 20 16 28 0 12 7 14 31 9 17 -3 43 -6 57
-6 38 0 14 -20 -29 -24 -19 -2 -55 -13 -82 -26 -38 -18 -50 -20 -62 -10 -13
10 -15 9 -15 -9 0 -11 -9 -26 -20 -33 -11 -7 -20 -16 -20 -20 0 -4 28 8 63 27
65 35 160 65 210 65 17 0 36 8 43 18 12 14 13 14 8 1 -4 -13 4 -18 38 -23 23
-4 62 -16 86 -26 32 -15 41 -16 32 -5 -6 8 -21 17 -31 20 -27 9 -18 30 12 30
14 0 25 7 27 17 2 12 -2 15 -19 11 -16 -4 -20 -2 -17 8 3 8 15 14 26 14 24 1
70 72 55 85 -32 30 -238 39 -321 15 -64 -19 -71 -30 -21 -30 45 -1 52 -6 43
-29 -5 -13 -14 -15 -35 -11 -18 4 -29 2 -29 -4 0 -11 13 -15 38 -12 6 1 12 -5
12 -14 0 -17 -16 -20 -25 -5 -5 8 -11 8 -20 0 -15 -12 -30 3 -20 20 3 6 1 10
-4 10 -6 0 -11 -6 -11 -14 0 -19 -14 -22 -87 -21 -80 1 -82 18 -3 26 43 4 65
11 75 25 13 18 10 19 -46 25 -64 6 -102 31 -121 79 -9 23 -12 21 -32 -39 -21
-64 -46 -92 -46 -52 0 20 -9 25 -37 22 -7 -1 -13 5 -13 14 0 9 9 15 25 15 14
0 25 5 25 10 0 6 -7 10 -16 10 -26 0 -9 25 22 31 16 4 21 7 12 8 -29 2 -30 18
-2 71 17 33 32 50 45 50 23 0 23 1 3 -45 -8 -21 -12 -41 -7 -46 4 -4 18 17 29
47 l21 54 -28 0 c-20 0 -29 5 -29 16 0 14 8 16 60 10 40 -5 60 -3 60 4 0 6
-23 10 -56 10 -47 0 -55 3 -52 18 2 13 17 18 68 23 55 5 58 6 20 7 -52 3 -72
12 -61 30 12 20 127 12 122 -8 -2 -8 -6 -28 -8 -45 -6 -42 13 -11 22 36 l7 36
-67 9 c-61 8 -65 10 -53 27 12 16 21 17 71 9 46 -7 57 -6 57 5 0 9 -15 13 -53
13 -62 0 -70 5 -56 33 9 16 18 19 55 14 24 -2 41 -1 38 4 -3 5 -23 9 -45 9
-38 0 -40 2 -37 28 3 25 6 27 46 24 25 -2 42 1 42 7 0 6 -16 11 -35 11 l-35 0
0 90 c0 53 4 90 10 90 6 0 10 -9 10 -20 0 -11 5 -20 10 -20 11 0 13 11 10 52
-1 22 2 26 19 21 14 -4 21 -1 21 9 0 26 51 68 81 68 23 0 28 -5 31 -27 l4 -28
8 28 c18 60 -33 106 -126 114 -54 5 -61 9 -91 47 -43 55 -74 82 -122 108 -93
49 -219 62 -292 29z m267 -30 c47 -25 110 -79 110 -94 0 -5 -18 7 -40 27 -41
37 -77 51 -47 18 10 -11 13 -23 8 -31 -6 -9 -11 -10 -15 -2 -4 6 -12 9 -17 5
-6 -3 -18 1 -27 9 -35 31 -83 47 -137 47 -48 0 -60 -4 -91 -33 -49 -45 -58
-104 -20 -142 33 -33 71 -30 100 8 l20 27 -26 27 c-20 20 -32 24 -53 19 -20
-5 -26 -12 -23 -28 4 -25 28 -37 28 -14 0 21 29 21 37 0 3 -8 -1 -22 -9 -31
-14 -13 -19 -13 -47 1 -61 32 -30 106 46 106 62 0 85 -83 39 -137 -34 -39
-103 -40 -142 -1 -57 57 -39 173 35 224 33 24 43 25 131 22 75 -3 104 -9 140
-27z m87 -117 c-10 -10 -37 16 -37 34 0 13 4 12 22 -5 12 -13 19 -25 15 -29z
m53 -318 c0 -3 -4 -8 -10 -11 -5 -3 -10 -1 -10 4 0 6 5 11 10 11 6 0 10 -2 10
-4z m-20 -56 c0 -5 -5 -10 -11 -10 -5 0 -7 5 -4 10 3 6 8 10 11 10 2 0 4 -4 4
-10z m-25 -140 c-10 -11 -23 -20 -28 -20 -6 0 -2 9 8 20 10 11 23 20 28 20 6
0 2 -9 -8 -20z m-29 -66 c-15 -14 -31 -22 -34 -19 -4 3 7 17 23 30 39 30 49
21 11 -11z m-25 -75 c-13 -10 -28 -19 -35 -19 -6 1 2 12 19 25 16 13 32 22 35
19 3 -3 -6 -14 -19 -25z m-11 -59 c0 -5 -5 -10 -11 -10 -5 0 -7 5 -4 10 3 6 8
10 11 10 2 0 4 -4 4 -10z m-45 -89 c-3 -6 -11 -11 -17 -11 -6 0 -6 6 2 15 14
17 26 13 15 -4z m435 -139 c0 -13 -12 -22 -22 -16 -10 6 -1 24 13 24 5 0 9 -4
9 -8z m50 -7 c0 -8 -7 -15 -15 -15 -8 0 -15 7 -15 15 0 8 7 15 15 15 8 0 15
-7 15 -15z m27 -7 c-3 -8 -6 -5 -6 6 -1 11 2 17 5 13 3 -3 4 -12 1 -19z m43 2
c0 -5 -4 -10 -9 -10 -6 0 -13 5 -16 10 -3 6 1 10 9 10 9 0 16 -4 16 -10z m50
-4 c0 -11 -19 -15 -25 -6 -3 5 1 10 9 10 9 0 16 -2 16 -4z m40 -20 c0 -16 -28
-42 -36 -33 -7 6 18 47 28 47 5 0 8 -6 8 -14z m-650 -12 c0 -8 -5 -12 -10 -9
-6 4 -8 11 -5 16 9 14 15 11 15 -7z m420 2 c0 -8 -4 -17 -9 -21 -12 -7 -24 12
-16 25 9 15 25 12 25 -4z m-194 -23 c-10 -10 -19 5 -10 18 6 11 8 11 12 0 2
-7 1 -15 -2 -18z m282 15 c-6 -19 -68 -20 -68 -2 0 9 12 14 36 14 24 0 34 -4
32 -12z m90 0 c-7 -19 -78 -21 -78 -3 0 11 12 15 41 15 28 0 39 -4 37 -12z
m-613 -27 c7 -12 -12 -24 -25 -16 -11 7 -4 25 10 25 5 0 11 -4 15 -9z m49 -6
c-4 -8 -12 -15 -20 -15 -8 0 -14 7 -14 15 0 8 9 15 20 15 13 0 18 -5 14 -15z
m416 -10 c0 -11 -11 -15 -40 -15 -38 0 -49 8 -33 23 3 4 21 7 40 7 23 0 33 -5
33 -15z m40 -5 c0 -5 -4 -10 -10 -10 -5 0 -10 5 -10 10 0 6 5 10 10 10 6 0 10
-4 10 -10z m90 0 c0 -11 0 -11 -47 -15 -32 -3 -41 4 -26 18 10 11 73 8 73 -3z
m-663 -35 c-4 -8 -11 -15 -17 -15 -7 0 -7 6 0 21 13 23 26 19 17 -6z m91 6 c3
-8 -1 -12 -9 -9 -7 2 -15 10 -17 17 -3 8 1 12 9 9 7 -2 15 -10 17 -17z m502
-11 c0 -5 -4 -10 -10 -10 -5 0 -10 5 -10 10 0 6 5 10 10 10 6 0 10 -4 10 -10z
m45 0 c3 -5 -1 -10 -10 -10 -9 0 -13 5 -10 10 3 6 8 10 10 10 2 0 7 -4 10 -10z
m-615 -20 c0 -5 -7 -10 -16 -10 -8 0 -12 5 -9 10 3 6 10 10 16 10 5 0 9 -4 9
-10z m50 -5 c0 -8 -4 -15 -9 -15 -13 0 -22 16 -14 24 11 11 23 6 23 -9z m-80
-45 c0 -5 -7 -10 -16 -10 -8 0 -12 5 -9 10 3 6 10 10 16 10 5 0 9 -4 9 -10z
m50 0 c0 -5 -7 -10 -16 -10 -8 0 -12 5 -9 10 3 6 10 10 16 10 5 0 9 -4 9 -10z
m28 -42 c-3 -7 -12 -14 -21 -16 -12 -2 -15 1 -11 12 7 19 38 22 32 4z m-98 -7
c0 -5 -16 -9 -35 -9 -19 0 -35 4 -35 9 0 5 16 9 35 9 19 0 35 -4 35 -9z m40 5
c0 -11 -19 -15 -25 -6 -3 5 1 10 9 10 9 0 16 -2 16 -4z m-27 -51 c-3 -8 -12
-15 -19 -15 -12 0 -12 4 -4 20 12 23 32 18 23 -5z m38 -8 c-16 -16 -26 0 -10
19 9 11 15 12 17 4 2 -6 -1 -17 -7 -23z m83 -26 c8 -12 -21 -34 -34 -26 -8 5
-8 11 1 21 13 16 25 18 33 5z m-104 -11 c0 -5 -7 -10 -16 -10 -8 0 -12 5 -9
10 3 6 10 10 16 10 5 0 9 -4 9 -10z m45 0 c-3 -5 -10 -10 -16 -10 -5 0 -9 5
-9 10 0 6 7 10 16 10 8 0 12 -4 9 -10z m15 -39 c0 -11 -29 -35 -35 -29 -10 9
7 38 21 38 8 0 14 -4 14 -9z m-55 -11 c-3 -5 -10 -10 -16 -10 -5 0 -9 5 -9 10
0 6 7 10 16 10 8 0 12 -4 9 -10z m-35 -50 c0 -5 -4 -10 -10 -10 -5 0 -10 5
-10 10 0 6 5 10 10 10 6 0 10 -4 10 -10z m50 0 c0 -5 -4 -10 -10 -10 -5 0 -10
5 -10 10 0 6 5 10 10 10 6 0 10 -4 10 -10z"/>
<path d="M5401 5660 c-2 -50 -5 -57 -34 -75 -60 -38 -62 -109 -3 -110 37 -1
47 -21 40 -80 -6 -48 -46 -157 -66 -182 -6 -7 -26 -13 -45 -13 -47 0 -83 -40
-82 -89 l1 -36 8 33 c11 46 21 53 74 59 l46 6 0 -46 c0 -50 -23 -77 -68 -77
-13 0 -20 -4 -17 -10 10 -16 61 -11 86 9 17 14 23 29 23 62 1 24 6 47 11 51
18 14 196 8 259 -8 33 -8 86 -29 116 -46 59 -33 150 -114 150 -135 0 -28 -39
-53 -82 -53 l-42 0 31 -31 c56 -53 103 -183 103 -279 0 -62 -24 -170 -48 -217
-29 -57 -107 -147 -153 -178 -49 -32 -166 -58 -217 -49 -46 8 -97 35 -140 72
l-33 29 18 37 c10 22 22 35 30 32 8 -3 15 5 19 22 4 15 11 33 17 40 21 27 23
9 6 -44 -22 -65 -16 -84 34 -114 39 -24 122 -26 175 -4 50 21 100 70 123 122
13 29 24 42 38 42 15 0 23 10 30 38 14 49 14 52 -6 52 -12 0 -14 -3 -7 -8 13
-8 0 -52 -15 -52 -11 0 -9 79 2 97 5 7 0 9 -13 6 -15 -4 -20 0 -20 16 0 11 -4
21 -10 21 -5 0 -10 9 -10 20 0 13 -7 20 -20 20 -11 0 -20 7 -20 16 0 8 -5 12
-11 9 -6 -4 -13 2 -15 12 -4 15 -12 19 -30 15 -18 -3 -24 0 -24 13 0 14 -3 15
-14 6 -10 -8 -26 -9 -60 -1 -66 15 -165 -3 -255 -46 -41 -19 -71 -37 -68 -40
3 -3 31 9 63 27 50 29 69 34 145 37 65 3 100 0 140 -13 60 -20 135 -84 155
-132 30 -71 9 -169 -48 -219 -12 -12 -49 -31 -80 -44 -51 -21 -62 -22 -98 -11
-22 6 -40 16 -40 21 0 12 0 12 39 -1 69 -24 151 47 151 129 0 32 -7 49 -32 78
-40 45 -82 64 -145 64 -69 0 -115 -26 -120 -67 -1 -18 2 -33 7 -33 6 0 2 -17
-9 -38 -21 -40 -51 -72 -51 -54 0 6 5 14 10 17 15 10 12 35 -5 35 -20 0 -20
-58 1 -109 16 -42 82 -103 129 -121 52 -20 170 -12 239 16 140 56 244 217 262
404 8 82 -18 209 -54 265 -19 29 -22 40 -12 43 43 15 69 67 54 106 -6 16 -150
130 -176 138 -10 4 -9 12 5 37 14 23 17 42 12 71 -5 33 -3 40 14 50 15 7 21
21 21 44 0 28 -6 38 -35 55 -25 14 -33 25 -28 37 6 15 4 15 -21 -1 -31 -20
-28 -26 22 -40 19 -6 37 -15 39 -21 2 -6 -8 -28 -22 -49 -19 -27 -23 -41 -16
-48 14 -14 14 -67 1 -67 -5 0 -10 -7 -10 -15 0 -8 -5 -15 -10 -15 -13 0 -22
21 -24 55 -1 17 -6 23 -15 20 -7 -3 -29 4 -48 15 -22 13 -44 18 -57 15 -38
-11 -90 -37 -129 -63 -70 -47 -51 -12 46 86 86 87 103 112 76 112 -4 0 -22
-12 -39 -26 -45 -39 -48 -22 -3 21 l38 37 -40 -16 c-25 -11 -41 -13 -43 -6 -2
5 -10 10 -17 10 -8 0 -11 7 -8 18 2 10 -1 31 -8 47 -7 17 -11 36 -10 43 1 6
-5 12 -14 12 -8 0 -15 -4 -15 -9 0 -8 -41 -23 -47 -17 -2 2 6 15 18 29 28 37
70 36 99 0 12 -16 25 -28 28 -28 4 0 13 -4 20 -9 16 -10 17 -8 27 24 8 25 7
25 -13 7 -15 -14 -22 -15 -28 -6 -4 8 4 22 22 37 l29 25 -45 -7 c-59 -9 -81 8
-96 71 l-12 48 -1 -55z m232 -442 c29 -34 22 -52 -15 -44 -18 4 -63 10 -101
13 -58 5 -65 8 -55 21 36 43 136 49 171 10z m-203 -733 c-8 -22 -60 -105 -65
-105 -9 0 0 93 10 107 18 24 29 11 15 -19 -7 -16 -3 -13 16 10 32 38 37 40 24
7z m50 18 c-1 -15 -39 -58 -46 -51 -8 9 22 58 36 58 6 0 10 -3 10 -7z m30 -5
c0 -19 -18 -43 -25 -36 -4 3 -2 16 5 27 12 24 20 27 20 9z m49 -17 c23 -15 5
-44 -21 -35 -30 9 -32 10 -25 29 7 17 25 19 46 6z m41 -45 c0 -8 -4 -17 -9
-21 -12 -7 -24 12 -16 25 9 15 25 12 25 -4z m-100 -16 c0 -5 6 -10 14 -10 13
0 26 -20 26 -42 0 -6 -15 -8 -35 -6 -44 5 -53 -14 -18 -42 21 -16 24 -23 14
-33 -9 -9 -14 -9 -20 1 -5 8 -12 14 -17 15 -5 1 -17 8 -26 16 -15 13 -15 17
-1 45 26 52 63 85 63 56z m115 -27 c-4 -10 -7 -30 -6 -46 1 -20 -5 -30 -21
-37 -13 -6 -31 -15 -40 -22 -9 -7 -21 -9 -25 -4 -9 9 33 46 52 46 7 0 15 7 19
15 3 8 1 15 -4 15 -14 0 -12 24 2 38 18 18 31 15 23 -5z m-294 -86 c-8 -8 -11
-7 -11 4 0 20 13 34 18 19 3 -7 -1 -17 -7 -23z m109 -28 c0 -6 -4 -7 -10 -4
-5 3 -10 11 -10 16 0 6 5 7 10 4 6 -3 10 -11 10 -16z"/>
<path d="M5230 5571 c0 -11 9 -25 19 -31 29 -15 38 -12 15 5 -17 13 -17 14 -1
15 17 0 25 20 8 20 -5 0 -16 3 -25 6 -11 4 -16 0 -16 -15z"/>
<path d="M5583 5559 c4 -13 7 -39 7 -56 0 -18 4 -33 9 -33 5 0 28 16 51 35 23
19 46 32 51 29 16 -10 10 -19 -21 -31 -16 -6 -30 -18 -30 -27 0 -20 14 -20 30
0 8 8 22 20 32 25 15 8 20 5 27 -13 8 -22 9 -21 16 11 8 39 -10 61 -51 61 -35
0 -73 -21 -67 -36 3 -8 1 -14 -4 -14 -15 0 -33 23 -33 41 0 10 -5 21 -12 25
-8 5 -9 0 -5 -17z"/>
<path d="M4695 5560 c-3 -5 -2 -10 4 -10 5 0 13 5 16 10 3 6 2 10 -4 10 -5 0
-13 -4 -16 -10z"/>
<path d="M4595 5550 c-4 -6 -15 -8 -26 -5 -20 7 -26 -9 -8 -21 6 -3 21 3 32
15 12 11 18 21 15 21 -4 0 -10 -5 -13 -10z"/>
<path d="M5243 5453 c9 -2 23 -2 30 0 6 3 -1 5 -18 5 -16 0 -22 -2 -12 -5z"/>
<path d="M5348 5443 c7 -3 16 -2 19 1 4 3 -2 6 -13 5 -11 0 -14 -3 -6 -6z"/>
<path d="M2652 5413 c14 -16 30 -37 36 -48 11 -20 11 -20 12 1 0 11 -13 32
-28 47 -37 35 -53 35 -20 0z"/>
<path d="M3534 5406 c-9 -24 4 -48 23 -44 12 2 18 12 18 28 0 29 -32 41 -41
16z"/>
<path d="M5335 5390 c4 -6 11 -8 16 -5 14 9 11 15 -7 15 -8 0 -12 -5 -9 -10z"/>
<path d="M4631 5352 c-18 -34 24 -57 49 -27 10 12 10 18 0 30 -17 20 -37 19
-49 -3z"/>
<path d="M4816 5339 c-8 -42 0 -50 9 -9 4 17 5 34 2 36 -2 3 -7 -10 -11 -27z"/>
<path d="M5643 5347 c-6 -10 -6 -10 34 -31 29 -14 33 -14 47 0 9 8 16 20 16
25 0 17 -86 23 -97 6z"/>
<path d="M5328 5343 c7 -3 16 -2 19 1 4 3 -2 6 -13 5 -11 0 -14 -3 -6 -6z"/>
<path d="M3593 5324 c-3 -8 -1 -20 5 -26 16 -16 42 -2 42 22 0 24 -38 28 -47
4z"/>
<path d="M3507 5314 c-15 -15 -7 -45 11 -42 9 2 17 12 17 22 0 20 -16 31 -28
20z"/>
<path d="M5328 5293 c7 -3 16 -2 19 1 4 3 -2 6 -13 5 -11 0 -14 -3 -6 -6z"/>
<path d="M4575 5280 c-4 -7 -3 -16 3 -22 14 -14 47 -6 47 12 0 18 -40 26 -50
10z"/>
<path d="M4682 5273 c5 -26 38 -29 38 -4 0 15 -6 21 -21 21 -14 0 -19 -5 -17
-17z"/>
<path d="M4796 5248 c-3 -13 -5 -34 -5 -48 1 -15 5 -7 10 19 9 47 6 68 -5 29z"/>
<path d="M3557 5238 c-7 -23 5 -48 24 -48 24 0 32 16 19 40 -12 22 -36 27 -43
8z"/>
<path d="M4626 5211 c-7 -11 3 -41 14 -41 13 0 32 29 25 40 -8 12 -32 13 -39
1z"/>
<path d="M3742 5138 c6 -18 28 -21 28 -4 0 9 -7 16 -16 16 -9 0 -14 -5 -12
-12z"/>
<path d="M4420 5105 c0 -8 7 -15 15 -15 8 0 15 7 15 15 0 8 -7 15 -15 15 -8 0
-15 -7 -15 -15z"/>
<path d="M5420 5100 c-6 -12 -9 -24 -7 -27 3 -2 11 5 17 17 6 12 9 24 7 27 -3
2 -11 -5 -17 -17z"/>
<path d="M5721 5027 c-13 -21 -12 -21 5 -5 10 10 16 20 13 22 -3 3 -11 -5 -18
-17z"/>
<path d="M3547 5033 c-4 -3 -7 -17 -7 -30 0 -16 6 -23 19 -23 25 0 34 14 26
40 -6 20 -25 26 -38 13z"/>
<path d="M4630 4990 c0 -11 6 -20 13 -20 19 0 27 10 20 26 -8 21 -33 17 -33
-6z"/>
<path d="M3802 4973 c5 -25 28 -28 28 -4 0 12 -6 21 -16 21 -9 0 -14 -7 -12
-17z"/>
<path d="M5826 4975 c-11 -8 -15 -15 -9 -15 6 0 16 7 23 15 16 19 11 19 -14 0z"/>
<path d="M3497 4963 c-4 -3 -7 -15 -7 -25 0 -21 25 -24 33 -4 6 16 -16 40 -26
29z"/>
<path d="M4370 4950 c0 -13 5 -20 13 -17 6 2 12 10 12 17 0 7 -6 15 -12 18 -8
2 -13 -5 -13 -18z"/>
<path d="M3584 4935 c-8 -20 4 -35 27 -35 14 0 19 7 19 25 0 18 -5 25 -20 25
-11 0 -23 -7 -26 -15z"/>
<path d="M4590 4935 c-15 -17 -5 -35 20 -35 22 0 33 23 17 39 -15 15 -22 14
-37 -4z"/>
<path d="M4687 4944 c-14 -15 -6 -34 14 -34 14 0 19 5 17 17 -3 18 -20 27 -31
17z"/>
<path d="M3525 4880 c-11 -17 5 -51 23 -48 23 4 23 52 0 56 -9 2 -19 -2 -23
-8z"/>
<path d="M4640 4850 c0 -11 7 -20 15 -20 8 0 15 9 15 20 0 11 -7 20 -15 20 -8
0 -15 -9 -15 -20z"/>
<path d="M3860 4826 c0 -9 5 -16 10 -16 6 0 10 4 10 9 0 6 -4 13 -10 16 -5 3
-10 -1 -10 -9z"/>
<path d="M5717 4823 c4 -20 1 -23 -21 -23 -17 0 -25 -4 -20 -11 3 -6 19 -9 35
-7 23 4 29 1 29 -13 0 -10 -4 -21 -10 -24 -17 -10 -11 -25 10 -25 10 0 23 -8
29 -17 17 -30 25 -5 12 37 -13 45 -75 124 -64 83z"/>
<path d="M5138 4823 c7 -3 16 -2 19 1 4 3 -2 6 -13 5 -11 0 -14 -3 -6 -6z"/>
<path d="M5188 4823 c7 -3 16 -2 19 1 4 3 -2 6 -13 5 -11 0 -14 -3 -6 -6z"/>
<path d="M4307 4814 c-9 -10 2 -24 19 -24 8 0 14 7 14 15 0 15 -21 21 -33 9z"/>
<path d="M5740 4681 c0 -5 7 -11 14 -14 10 -4 13 -1 9 9 -6 15 -23 19 -23 5z"/>
<path d="M3902 4664 c1 -9 9 -19 16 -22 9 -3 13 2 10 14 -1 9 -9 19 -16 22 -9
3 -13 -2 -10 -14z"/>
<path d="M4772 4650 c0 -14 2 -19 5 -12 2 6 2 18 0 25 -3 6 -5 1 -5 -13z"/>
<path d="M5787 4657 c-3 -8 3 -43 13 -78 l19 -64 0 49 c1 35 -4 52 -16 62 -11
8 -13 13 -5 14 6 0 12 7 12 15 0 19 -16 20 -23 2z"/>
<path d="M4244 4649 c-3 -6 -2 -15 4 -21 13 -13 32 -2 32 18 0 16 -26 19 -36
3z"/>
<path d="M4671 4641 c-17 -11 -10 -46 9 -46 17 0 26 33 13 46 -4 4 -14 4 -22
0z"/>
<path d="M4714 4559 c-9 -15 12 -33 30 -26 9 4 16 13 16 22 0 17 -35 21 -46 4z"/>
<path d="M4632 4548 c-15 -18 1 -41 24 -36 23 4 26 41 3 46 -9 1 -21 -3 -27
-10z"/>
<path d="M3960 4520 c0 -13 5 -20 13 -17 6 2 12 10 12 17 0 7 -6 15 -12 18 -8
2 -13 -5 -13 -18z"/>
<path d="M4202 4494 c4 -21 22 -23 26 -1 2 10 -3 17 -13 17 -10 0 -15 -6 -13
-16z"/>
<path d="M4698 4499 c-20 -11 -24 -34 -7 -45 15 -9 31 10 27 34 -2 17 -7 19
-20 11z"/>
<path d="M4738 4386 c2 -20 8 -39 13 -42 14 -8 11 40 -4 60 -12 16 -13 14 -9
-18z"/>
<path d="M4000 4344 c0 -9 5 -14 12 -12 18 6 21 28 4 28 -9 0 -16 -7 -16 -16z"/>
<path d="M4160 4344 c0 -8 5 -12 10 -9 6 4 8 11 5 16 -9 14 -15 11 -15 -7z"/>
<path d="M4071 4236 c-9 -10 -8 -16 3 -26 19 -15 36 -5 36 21 0 22 -22 25 -39
5z"/>
<path d="M4685 4210 c-8 -13 3 -30 20 -30 14 0 27 24 18 34 -10 9 -31 7 -38
-4z"/>
<path d="M4030 4195 c0 -9 5 -15 11 -13 6 2 11 8 11 13 0 5 -5 11 -11 13 -6 2
-11 -4 -11 -13z"/>
<path d="M4060 4135 c0 -18 5 -25 19 -25 23 0 34 23 18 39 -19 19 -37 12 -37
-14z"/>
<path d="M5020 4140 c0 -11 7 -20 15 -20 10 0 15 -10 15 -27 1 -24 2 -26 11
-10 13 22 3 54 -22 67 -16 9 -19 7 -19 -10z"/>
<path d="M4988 4048 c7 -7 12 -22 12 -35 0 -14 6 -23 15 -23 8 0 15 -7 15 -15
0 -8 7 -15 15 -15 9 0 15 -9 15 -21 0 -15 5 -19 15 -15 11 4 15 -2 15 -21 0
-21 3 -24 12 -15 16 16 28 15 28 -3 0 -8 7 -15 15 -15 8 0 15 -9 15 -20 0 -11
4 -20 9 -20 23 0 -6 54 -45 84 -24 18 -64 59 -89 90 -25 31 -49 56 -53 56 -3
0 -1 -5 6 -12z"/>
<path d="M5087 4030 c-3 -11 -1 -20 4 -20 5 0 9 9 9 20 0 11 -2 20 -4 20 -2 0
-6 -9 -9 -20z"/>
<path d="M5636 3810 c-16 -5 -49 -28 -73 -52 -39 -38 -43 -47 -43 -90 0 -41 5
-54 33 -84 55 -60 152 -57 197 6 42 60 11 124 -58 118 -30 -2 -38 -7 -40 -26
-2 -13 3 -25 12 -28 22 -8 20 -24 -2 -24 -21 0 -52 29 -52 48 0 27 40 52 83
52 53 0 85 -29 94 -85 5 -29 8 -34 15 -21 12 21 -6 84 -33 116 -15 18 -22 21
-26 12 -4 -10 -11 -8 -29 9 -13 12 -24 26 -24 30 0 10 70 4 101 -9 25 -10 109
-111 109 -132 0 -16 -18 -12 -29 8 -6 9 -11 13 -11 9 0 -4 10 -21 22 -38 20
-27 21 -32 9 -67 -21 -59 -30 -65 -60 -46 l-26 17 18 -26 c21 -32 21 -37 2
-37 -8 0 -15 -5 -15 -11 0 -6 -7 -9 -15 -5 -9 3 -15 0 -15 -10 0 -11 -6 -13
-20 -9 -12 4 -20 2 -20 -6 0 -9 -4 -8 -15 1 -12 10 -15 9 -15 -5 0 -11 -5 -15
-15 -11 -9 3 -15 0 -15 -9 0 -8 -4 -15 -10 -15 -5 0 -10 5 -10 10 0 6 -4 10
-10 10 -5 0 -10 -7 -10 -16 0 -12 -11 -15 -62 -13 -35 2 -75 9 -90 16 -32 15
-38 16 -38 4 0 -5 9 -13 20 -16 12 -4 20 -14 18 -23 -3 -19 40 -98 48 -89 3 3
-2 20 -11 37 -21 41 -8 58 32 41 56 -23 189 19 269 84 50 41 94 124 94 176 0
133 -151 238 -284 199z m48 -26 c10 -26 7 -29 -23 -31 -18 -1 -31 4 -35 12 -5
15 19 22 27 8 2 -5 3 -3 1 4 -6 25 21 31 30 7z m-69 -44 c-5 -8 -11 -8 -17 -2
-6 6 -7 16 -3 22 5 8 11 8 17 2 6 -6 7 -16 3 -22z m-26 -36 c-30 -36 47 -120
98 -108 13 4 23 2 23 -4 0 -13 -47 -24 -71 -17 -10 4 -19 11 -19 16 0 6 -8 8
-19 4 -10 -3 -23 0 -28 7 -17 21 -24 84 -13 113 9 23 13 25 25 15 12 -10 12
-16 4 -26z m161 -33 c6 -13 6 -22 1 -26 -9 -5 -31 24 -31 39 0 14 20 4 30 -13z
m-10 -56 c0 -8 -4 -15 -10 -15 -5 0 -10 7 -10 15 0 8 5 15 10 15 6 0 10 -7 10
-15z"/>
<path d="M5736 3548 c-17 -13 -51 -24 -90 -28 -58 -7 -44 -14 19 -10 32 2 99
33 110 50 10 16 -8 11 -39 -12z"/>
<path d="M4920 3220 c-3 -58 -4 -107 -3 -109 10 -15 13 19 11 110 l-3 104 -5
-105z"/>
<path d="M4952 3300 c0 -14 2 -19 5 -12 2 6 2 18 0 25 -3 6 -5 1 -5 -13z"/>
<path d="M4950 3240 c0 -11 2 -20 4 -20 2 0 6 9 9 20 3 11 1 20 -4 20 -5 0 -9
-9 -9 -20z"/>
<path d="M4952 3160 c-1 -19 -4 -53 -7 -75 l-5 -40 11 40 c5 22 8 56 6 75 l-4
35 -1 -35z"/>
<path d="M4812 2710 c0 -19 2 -27 5 -17 2 9 2 25 0 35 -3 9 -5 1 -5 -18z"/>
<path d="M4770 2688 c0 -19 2 -20 10 -8 13 19 13 30 0 30 -5 0 -10 -10 -10
-22z"/>
<path d="M4741 2684 c0 -11 3 -14 6 -6 3 7 2 16 -1 19 -3 4 -6 -2 -5 -13z"/>
<path d="M4170 2272 c0 -7 11 -25 25 -40 14 -15 25 -21 25 -15 0 16 -49 71
-50 55z"/>
<path d="M3756 2245 c-11 -8 -15 -15 -9 -15 6 0 16 7 23 15 16 19 11 19 -14 0z"/>
<path d="M3780 2225 c-14 -8 -20 -14 -14 -15 5 0 19 7 30 15 24 18 16 19 -16
0z"/>
</g>
</svg>
