<?xml version="1.0" standalone="no"?>
<!DOCTYPE svg PUBLIC "-//W3C//DTD SVG 20010904//EN"
 "http://www.w3.org/TR/2001/REC-SVG-20010904/DTD/svg10.dtd">
<svg version="1.0" xmlns="http://www.w3.org/2000/svg"
 width="920.000000pt" height="920.000000pt" viewBox="0 0 920.000000 920.000000"
 preserveAspectRatio="xMidYMid meet">

<g transform="translate(0.000000,920.000000) scale(0.100000,-0.100000)"
fill="#000000" stroke="none">
<path d="M697 7639 c-290 -38 -530 -240 -631 -533 l-21 -61 -3 -2413 c-3
-2700 -8 -2484 72 -2647 103 -207 275 -348 498 -408 l83 -22 3900 0 c3746 0
3903 1 3978 18 260 61 478 266 559 527 l23 75 0 2425 0 2425 -23 75 c-81 259
-276 448 -541 523 l-76 22 -3875 1 c-2200 1 -3905 -2 -3943 -7z m7458 -537
c-23 -20 -268 -228 -545 -462 -278 -234 -606 -511 -730 -615 -219 -185 -603
-509 -1600 -1350 -267 -225 -529 -446 -583 -493 l-98 -84 -52 44 c-47 40
-1633 1380 -1803 1523 -39 33 -185 157 -325 275 -140 118 -456 385 -704 594
-247 210 -488 413 -535 452 -47 39 -105 90 -130 112 l-45 41 3595 0 3595 0
-40 -37z m503 -3602 l-3 -1121 -735 612 c-404 337 -1003 835 -1330 1107 -327
272 -596 499 -598 503 -4 9 -12 1 1483 1263 l1180 995 3 -1119 c1 -616 1
-1624 0 -2240z m-7993 3257 c61 -51 333 -281 605 -511 272 -230 533 -450 580
-490 47 -40 355 -300 685 -578 699 -590 681 -575 675 -580 -3 -3 -598 -498
-1322 -1101 -724 -603 -1320 -1101 -1323 -1107 -3 -5 -10 -10 -16 -10 -5 0 -9
845 -9 2235 0 1229 3 2235 8 2235 4 0 57 -42 117 -93z m3367 -2844 c253 -213
441 -364 468 -376 59 -27 141 -27 200 0 25 11 127 90 226 174 100 85 277 235
395 334 118 99 226 190 241 203 l27 23 208 -174 c114 -95 708 -589 1318 -1096
611 -508 1114 -927 1120 -932 5 -5 -1552 -9 -3628 -9 -2000 0 -3637 3 -3636 8
0 6 2627 2199 2637 2201 1 1 192 -159 424 -356z"/>
</g>
</svg>
