<?xml version="1.0" standalone="no"?>
<!DOCTYPE svg PUBLIC "-//W3C//DTD SVG 20010904//EN"
 "http://www.w3.org/TR/2001/REC-SVG-20010904/DTD/svg10.dtd">
<svg version="1.0" xmlns="http://www.w3.org/2000/svg"
 width="900.000000pt" height="960.000000pt" viewBox="0 0 900.000000 960.000000"
 preserveAspectRatio="xMidYMid meet">

<g transform="translate(0.000000,960.000000) scale(0.100000,-0.100000)"
fill="#000000" stroke="none">
<path d="M4190 9574 c-543 -65 -997 -255 -1373 -574 -554 -470 -852 -1157
-874 -2016 -6 -252 2 -324 67 -579 192 -748 854 -2091 1820 -3690 214 -354
341 -561 477 -775 166 -263 184 -290 193 -290 11 0 242 363 473 740 1157 1894
1864 3320 2041 4110 38 173 46 239 46 420 0 531 -130 1055 -362 1460 -114 198
-216 331 -387 500 -408 405 -925 637 -1560 700 -140 14 -421 11 -561 -6z m520
-1745 c246 -57 467 -233 580 -464 72 -146 94 -241 94 -395 -1 -252 -82 -447
-259 -625 -494 -496 -1324 -257 -1492 431 -24 102 -22 305 6 409 49 183 172
372 316 482 218 168 483 225 755 162z"/>
<path d="M2993 3250 c-949 -121 -1625 -365 -1999 -722 -257 -246 -367 -559
-310 -883 83 -470 512 -885 1224 -1185 539 -226 1194 -369 1992 -432 209 -17
986 -17 1200 0 938 73 1679 258 2275 566 417 215 707 481 851 781 81 169 99
247 98 440 0 144 -3 169 -27 246 -58 190 -126 299 -277 450 -331 329 -891 556
-1705 693 -142 24 -462 66 -502 66 -26 0 -182 -147 -163 -154 8 -2 87 -14 175
-26 641 -84 1208 -274 1517 -506 219 -164 316 -330 306 -523 -15 -283 -247
-532 -703 -756 -397 -196 -844 -321 -1445 -404 -509 -71 -1221 -81 -1775 -26
-1292 130 -2247 576 -2365 1106 -18 82 -9 200 22 277 133 326 624 598 1363
757 152 32 410 76 540 91 33 3 64 9 69 12 5 3 -27 38 -70 78 -91 85 -73 81
-291 54z"/>
</g>
</svg>
