<?xml version="1.0" standalone="no"?>
<!DOCTYPE svg PUBLIC "-//W3C//DTD SVG 20010904//EN"
 "http://www.w3.org/TR/2001/REC-SVG-20010904/DTD/svg10.dtd">
<svg version="1.0" xmlns="http://www.w3.org/2000/svg"
 width="920.000000pt" height="512.000000pt" viewBox="0 0 920.000000 512.000000"
 preserveAspectRatio="xMidYMid meet">

<g transform="translate(0.000000,512.000000) scale(0.100000,-0.100000)"
fill="#000000" stroke="none">
<path d="M4410 5044 c-200 -25 -379 -78 -555 -165 -521 -257 -862 -778 -892
-1360 -7 -131 5 -237 44 -379 132 -495 580 -1248 1267 -2129 83 -107 174 -218
201 -248 46 -48 54 -53 95 -53 41 0 49 5 95 53 27 30 118 141 201 248 687 881
1135 1634 1267 2129 39 142 51 248 44 379 -38 740 -574 1357 -1304 1502 -105
20 -374 34 -463 23z m386 -239 c660 -114 1154 -689 1154 -1346 0 -129 -13
-205 -61 -355 -138 -434 -573 -1145 -1172 -1917 -76 -97 -142 -177 -147 -177
-11 0 -244 300 -418 538 -535 734 -866 1336 -947 1724 -8 38 -15 122 -15 187
0 653 490 1228 1145 1345 109 19 350 20 461 1z"/>
<path d="M4422 4210 c-116 -31 -206 -84 -298 -175 -190 -189 -250 -458 -158
-704 75 -199 260 -363 469 -416 76 -19 232 -19 315 1 243 57 444 267 494 516
30 147 12 286 -54 423 -80 165 -213 281 -400 347 -84 30 -272 34 -368 8z m261
-215 c206 -43 347 -218 347 -430 0 -324 -331 -536 -627 -400 -67 30 -161 119
-198 186 -75 139 -72 305 8 442 34 57 123 138 184 168 51 25 138 47 188 48 17
0 61 -6 98 -14z"/>
<path d="M3760 1263 c-409 -94 -673 -239 -762 -421 -29 -58 -33 -76 -33 -147
0 -68 4 -89 29 -140 116 -238 511 -406 1126 -481 204 -25 696 -25 900 0 615
75 1010 243 1126 481 25 51 29 72 29 140 0 70 -4 89 -32 145 -82 166 -314 306
-653 394 -190 49 -218 50 -261 7 -41 -41 -41 -107 -1 -151 23 -25 48 -35 162
-64 257 -65 408 -134 503 -227 48 -49 57 -63 57 -94 0 -51 -23 -89 -82 -136
-157 -124 -472 -222 -868 -271 -141 -18 -719 -18 -860 0 -396 49 -711 147
-868 271 -60 48 -82 85 -82 138 0 32 8 44 58 93 96 94 282 175 532 235 127 30
165 54 176 111 8 45 -19 99 -61 118 -39 19 -50 19 -135 -1z"/>
</g>
</svg>
