<?xml version="1.0" standalone="no"?>
<!DOCTYPE svg PUBLIC "-//W3C//DTD SVG 20010904//EN"
 "http://www.w3.org/TR/2001/REC-SVG-20010904/DTD/svg10.dtd">
<svg version="1.0" xmlns="http://www.w3.org/2000/svg"
 width="920.000000pt" height="920.000000pt" viewBox="0 0 920.000000 920.000000"
 preserveAspectRatio="xMidYMid meet">

<g transform="translate(0.000000,920.000000) scale(0.100000,-0.100000)"
fill="#000000" stroke="none">
<path d="M4503 8322 c-145 -52 -228 -173 -241 -348 -6 -92 16 -166 74 -245 76
-103 152 -133 379 -149 490 -37 876 -137 1255 -326 550 -275 999 -731 1310
-1329 186 -356 296 -769 315 -1185 11 -227 34 -309 110 -385 101 -100 280
-130 434 -73 76 29 159 112 192 193 22 54 24 73 23 205 -3 251 -44 541 -118
834 -137 537 -392 1024 -791 1511 -190 231 -305 339 -610 570 -604 457 -1347
720 -2100 741 -159 4 -186 3 -232 -14z"/>
<path d="M1900 7428 c-36 -13 -87 -36 -115 -52 -66 -38 -748 -720 -799 -798
-51 -80 -94 -184 -119 -292 -28 -123 -30 -408 -3 -571 91 -564 400 -1274 838
-1925 739 -1100 1742 -1982 2887 -2537 524 -253 935 -372 1346 -390 232 -9
409 24 564 108 102 54 165 111 503 454 313 319 337 345 375 422 78 156 79 289
1 446 -39 79 -57 98 -537 580 -282 283 -521 515 -554 537 -90 60 -158 83 -265
88 -113 5 -197 -18 -292 -79 -44 -28 -191 -166 -446 -420 -342 -341 -383 -379
-412 -379 -43 0 -344 151 -490 246 -436 285 -837 650 -1233 1126 -198 238
-346 454 -454 663 -73 143 -98 212 -91 250 5 23 90 114 367 390 198 198 380
388 405 421 127 176 143 342 52 527 -39 80 -55 96 -557 598 l-516 517 -90 43
c-85 41 -94 43 -195 46 -90 3 -114 0 -170 -19z"/>
<path d="M4500 6919 c-111 -22 -208 -99 -258 -207 -24 -50 -27 -69 -27 -162 0
-92 3 -112 26 -160 45 -97 117 -161 221 -197 22 -7 110 -18 196 -23 426 -28
751 -165 1035 -439 310 -299 464 -637 496 -1092 14 -188 50 -282 137 -358 69
-61 115 -76 239 -76 100 0 116 3 173 29 78 36 152 113 184 194 20 51 22 73 21
202 -3 515 -187 1012 -531 1440 -335 416 -842 718 -1367 815 -222 41 -441 54
-545 34z"/>
</g>
</svg>
