<svg viewBox="0 0 400 300" xmlns="http://www.w3.org/2000/svg">
  <defs>
    <linearGradient id="central" x1="0%" y1="0%" x2="100%" y2="100%">
      <stop offset="0%" style="stop-color:#8b5cf6" />
      <stop offset="100%" style="stop-color:#6d28d9" />
    </linearGradient>
    
    <linearGradient id="node1" x1="0%" y1="0%" x2="100%" y2="100%">
      <stop offset="0%" style="stop-color:#06b6d4" />
      <stop offset="100%" style="stop-color:#0891b2" />
    </linearGradient>
    
    <linearGradient id="node2" x1="0%" y1="0%" x2="100%" y2="100%">
      <stop offset="0%" style="stop-color:#10b981" />
      <stop offset="100%" style="stop-color:#059669" />
    </linearGradient>
    
    <linearGradient id="node3" x1="0%" y1="0%" x2="100%" y2="100%">
      <stop offset="0%" style="stop-color:#f59e0b" />
      <stop offset="100%" style="stop-color:#d97706" />
    </linearGradient>
    
    <linearGradient id="node4" x1="0%" y1="0%" x2="100%" y2="100%">
      <stop offset="0%" style="stop-color:#ef4444" />
      <stop offset="100%" style="stop-color:#dc2626" />
    </linearGradient>
  </defs>

  <!-- Background -->
  <circle cx="200" cy="150" r="80" stroke="#8b5cf6" stroke-width="1" fill="none" opacity="0.1" stroke-dasharray="2,4"/>
  <circle cx="200" cy="150" r="120" stroke="#06b6d4" stroke-width="1" fill="none" opacity="0.1" stroke-dasharray="3,6"/>

  <!-- Central AI Core -->
  <circle cx="200" cy="150" r="28" fill="url(#central)" opacity="0.9"/>
  <circle cx="200" cy="150" r="20" fill="#1e1b4b" opacity="0.4"/>
  <circle cx="200" cy="150" r="12" fill="url(#central)" opacity="0.6"/>
  <circle cx="200" cy="150" r="6" fill="#ffffff" opacity="0.9"/>
  
  <!-- Neural connections -->
  <line x1="184" y1="134" x2="216" y2="166" stroke="#ffffff" stroke-width="1" opacity="0.6"/>
  <line x1="216" y1="134" x2="184" y2="166" stroke="#ffffff" stroke-width="1" opacity="0.6"/>
  <line x1="200" y1="130" x2="200" y2="170" stroke="#ffffff" stroke-width="1" opacity="0.6"/>
  <line x1="180" y1="150" x2="220" y2="150" stroke="#ffffff" stroke-width="1" opacity="0.6"/>

  <!-- Computer Vision Node -->
  <circle cx="120" cy="100" r="22" fill="url(#node1)" opacity="0.9"/>
  <circle cx="120" cy="100" r="16" fill="#1e3a8a" opacity="0.4"/>
  <rect x="112" y="92" width="16" height="12" rx="2" fill="#ffffff" opacity="0.3"/>
  <circle cx="120" cy="98" r="4" fill="none" stroke="#ffffff" stroke-width="1" opacity="0.8"/>
  <circle cx="120" cy="98" r="2" fill="#ffffff" opacity="0.9"/>
  
  <!-- NLP Node -->
  <circle cx="280" cy="100" r="22" fill="url(#node3)" opacity="0.9"/>
  <circle cx="280" cy="100" r="16" fill="#7c2d12" opacity="0.4"/>
  <rect x="272" y="94" width="6" height="1" fill="#ffffff" opacity="0.9"/>
  <rect x="279" y="94" width="9" height="1" fill="#ffffff" opacity="0.7"/>
  <rect x="272" y="97" width="4" height="1" fill="#ffffff" opacity="0.8"/>
  <rect x="272" y="100" width="8" height="1" fill="#ffffff" opacity="0.9"/>
  <rect x="272" y="103" width="12" height="1" fill="#ffffff" opacity="0.7"/>

  <!-- ML Node -->
  <circle cx="120" cy="200" r="22" fill="url(#node2)" opacity="0.9"/>
  <circle cx="120" cy="200" r="16" fill="#134e4a" opacity="0.4"/>
  <circle cx="114" cy="194" r="1" fill="#ffffff" opacity="0.8"/>
  <circle cx="120" cy="192" r="1" fill="#ffffff" opacity="0.8"/>
  <circle cx="126" cy="194" r="1" fill="#ffffff" opacity="0.8"/>
  <circle cx="112" cy="200" r="1" fill="#ffffff" opacity="0.8"/>
  <circle cx="120" cy="200" r="1" fill="#ffffff" opacity="0.8"/>
  <circle cx="128" cy="200" r="1" fill="#ffffff" opacity="0.8"/>
  <circle cx="114" cy="206" r="1" fill="#ffffff" opacity="0.8"/>
  <circle cx="120" cy="208" r="1" fill="#ffffff" opacity="0.8"/>
  <circle cx="126" cy="206" r="1" fill="#ffffff" opacity="0.8"/>

  <!-- DL Node -->
  <circle cx="280" cy="200" r="22" fill="url(#node4)" opacity="0.9"/>
  <circle cx="280" cy="200" r="16" fill="#7f1d1d" opacity="0.4"/>
  <rect x="272" y="192" width="16" height="2" rx="1" fill="#ffffff" opacity="0.9"/>
  <rect x="272" y="196" width="16" height="2" rx="1" fill="#ffffff" opacity="0.7"/>
  <rect x="272" y="200" width="16" height="2" rx="1" fill="#ffffff" opacity="0.8"/>
  <rect x="272" y="204" width="16" height="2" rx="1" fill="#ffffff" opacity="0.6"/>

  <!-- Connections -->
  <line x1="172" y1="125" x2="138" y2="112" stroke="#8b5cf6" stroke-width="3" opacity="0.7"/>
  <line x1="228" y1="125" x2="262" y2="112" stroke="#8b5cf6" stroke-width="3" opacity="0.7"/>
  <line x1="172" y1="175" x2="138" y2="188" stroke="#8b5cf6" stroke-width="3" opacity="0.7"/>
  <line x1="228" y1="175" x2="262" y2="188" stroke="#8b5cf6" stroke-width="3" opacity="0.7"/>

  <!-- Labels -->
  <rect x="105" y="75" width="30" height="12" rx="6" fill="#06b6d4"/>
  <text x="120" y="83" text-anchor="middle" fill="white" font-family="Arial" font-size="8" font-weight="bold">CV</text>
  
  <rect x="265" y="75" width="30" height="12" rx="6" fill="#f59e0b"/>
  <text x="280" y="83" text-anchor="middle" fill="white" font-family="Arial" font-size="8" font-weight="bold">NLP</text>
  
  <rect x="105" y="215" width="30" height="12" rx="6" fill="#10b981"/>
  <text x="120" y="223" text-anchor="middle" fill="white" font-family="Arial" font-size="8" font-weight="bold">ML</text>
  
  <rect x="265" y="215" width="30" height="12" rx="6" fill="#ef4444"/>
  <text x="280" y="223" text-anchor="middle" fill="white" font-family="Arial" font-size="8" font-weight="bold">DL</text>
  
  <rect x="175" y="125" width="50" height="12" rx="6" fill="#8b5cf6"/>
  <text x="200" y="133" text-anchor="middle" fill="white" font-family="Arial" font-size="8" font-weight="bold">Neural AI</text>
</svg>