<?xml version="1.0" encoding="UTF-8"?>
<!DOCTYPE svg PUBLIC "-//W3C//DTD SVG 1.1//EN" "http://www.w3.org/Graphics/SVG/1.1/DTD/svg11.dtd">
<svg xmlns="http://www.w3.org/2000/svg" version="1.1" width="768px" height="167px" style="shape-rendering:geometricPrecision; text-rendering:geometricPrecision; image-rendering:optimizeQuality; fill-rule:evenodd; clip-rule:evenodd" xmlns:xlink="http://www.w3.org/1999/xlink">
<g><path style="opacity:0.962" fill="#00aeef" d="M 21.5,-0.5 C 33.5,-0.5 45.5,-0.5 57.5,-0.5C 57.5,3.83333 57.5,8.16667 57.5,12.5C 52.5068,12.9157 47.5068,13.2491 42.5,13.5C 38.5608,34.8007 34.7275,56.134 31,77.5C 27.9068,79.9647 24.4068,81.798 20.5,83C 24.4862,84.0921 27.9862,85.9255 31,88.5C 34.7275,109.866 38.5608,131.199 42.5,152.5C 47.5068,152.751 52.5068,153.084 57.5,153.5C 57.5,157.833 57.5,162.167 57.5,166.5C 45.5,166.5 33.5,166.5 21.5,166.5C 16.3604,164.181 13.1937,160.181 12,154.5C 8.03003,132.66 3.86336,110.993 -0.5,89.5C -0.5,85.1667 -0.5,80.8333 -0.5,76.5C 3.86336,55.0066 8.03003,33.3399 12,11.5C 13.1937,5.81949 16.3604,1.81949 21.5,-0.5 Z"/></g>
<g><path style="opacity:0.961" fill="#00aeef" d="M 186.5,-0.5 C 198.5,-0.5 210.5,-0.5 222.5,-0.5C 227.496,1.43509 230.662,5.10175 232,10.5C 236.446,34.6791 240.946,58.8458 245.5,83C 240.946,107.154 236.446,131.321 232,155.5C 230.662,160.898 227.496,164.565 222.5,166.5C 210.5,166.5 198.5,166.5 186.5,166.5C 186.5,162.167 186.5,157.833 186.5,153.5C 191.795,153.526 196.961,152.859 202,151.5C 205.835,129.82 209.669,108.154 213.5,86.5C 216.911,85.6403 220.244,84.4737 223.5,83C 220.539,81.7353 217.539,80.5686 214.5,79.5C 209.695,58.0083 205.528,36.3417 202,14.5C 196.961,13.1409 191.795,12.4742 186.5,12.5C 186.5,8.16667 186.5,3.83333 186.5,-0.5 Z"/></g>
<g><path style="opacity:0.958" fill="white" d="M 115.5,31.5 C 125.172,31.3335 134.839,31.5002 144.5,32C 153.472,33.0446 158.972,37.8779 161,46.5C 161.5,68.4975 161.667,90.4975 161.5,112.5C 165.5,112.833 169.5,113.167 173.5,113.5C 173.666,117.846 173.499,122.179 173,126.5C 161.722,130.465 150.222,131.299 138.5,129C 134.597,127.385 131.931,124.552 130.5,120.5C 123.737,124.215 116.737,127.382 109.5,130C 103.5,130.667 97.5,130.667 91.5,130C 81.5848,126.749 76.0848,119.915 75,109.5C 74.3333,102.167 74.3333,94.8333 75,87.5C 75.9822,78.6799 80.4822,72.5132 88.5,69C 102.178,68.3821 115.845,68.5488 129.5,69.5C 129.91,63.3792 129.41,57.3792 128,51.5C 126.581,50.5399 125.081,49.7065 123.5,49C 119.179,48.501 114.846,48.3343 110.5,48.5C 110.037,51.4824 109.704,54.4824 109.5,57.5C 99.5,57.5 89.5,57.5 79.5,57.5C 79.1694,50.1365 79.5027,42.8032 80.5,35.5C 92.2726,33.9579 103.939,32.6246 115.5,31.5 Z M 111.5,84.5 C 117.5,84.5 123.5,84.5 129.5,84.5C 129.5,92.5 129.5,100.5 129.5,108.5C 111.501,114.977 104.001,108.977 107,90.5C 107.599,87.7458 109.099,85.7458 111.5,84.5 Z"/></g>
<g><path style="opacity:0.961" fill="white" d="M 294.5,32.5 C 312.503,32.3334 330.503,32.5001 348.5,33C 354.334,33.0551 359.501,34.8885 364,38.5C 365.275,40.7173 366.275,43.0506 367,45.5C 367.667,51.5 367.667,57.5 367,63.5C 365.962,70.2488 362.462,75.2488 356.5,78.5C 364.212,80.0454 368.712,84.712 370,92.5C 370.822,100.555 370.488,108.555 369,116.5C 367.037,122.731 362.87,126.564 356.5,128C 348.915,129.573 341.248,130.406 333.5,130.5C 316.742,129.985 300.076,128.652 283.5,126.5C 282.667,100.506 282.167,74.5064 282,48.5C 279.313,47.287 276.48,46.6203 273.5,46.5C 273.5,42.1667 273.5,37.8333 273.5,33.5C 280.687,33.8245 287.687,33.4912 294.5,32.5 Z M 314.5,47.5 C 320.176,47.3339 325.843,47.5006 331.5,48C 332.766,48.3095 333.933,48.8095 335,49.5C 336.942,55.4853 336.942,61.4853 335,67.5C 334.167,68.3333 333.333,69.1667 332.5,70C 326.775,71.8211 320.941,72.9878 315,73.5C 314.5,64.8397 314.334,56.1731 314.5,47.5 Z M 314.5,86.5 C 321.257,86.1226 327.924,86.6226 334.5,88C 335.701,88.9025 336.535,90.0692 337,91.5C 341.008,110.325 333.508,117.658 314.5,113.5C 314.5,104.5 314.5,95.5 314.5,86.5 Z"/></g>
<g><path style="opacity:0.962" fill="white" d="M 378.5,33.5 C 392.833,33.5 407.167,33.5 421.5,33.5C 421.609,50.5439 421.442,67.5439 421,84.5C 429.853,67.2934 439.353,50.4601 449.5,34C 459.161,33.5002 468.828,33.3335 478.5,33.5C 478.167,59.5085 478.5,85.5085 479.5,111.5C 482.757,112.551 486.09,113.218 489.5,113.5C 490.065,118.322 489.399,122.822 487.5,127C 476.869,128.443 466.202,128.776 455.5,128C 449.741,126.904 446.907,123.404 447,117.5C 446.449,103.807 446.449,90.1399 447,76.5C 437.932,93.2381 428.432,109.738 418.5,126C 408.839,126.5 399.172,126.666 389.5,126.5C 389.667,100.498 389.5,74.4979 389,48.5C 385.636,47.2607 382.136,46.5941 378.5,46.5C 378.5,42.1667 378.5,37.8333 378.5,33.5 Z"/></g>
<g><path style="opacity:0.963" fill="white" d="M 503.5,33.5 C 515.167,33.5 526.833,33.5 538.5,33.5C 541.09,45.4478 543.423,57.4478 545.5,69.5C 549.833,69.5 554.167,69.5 558.5,69.5C 558.5,57.5 558.5,45.5 558.5,33.5C 569.167,33.5 579.833,33.5 590.5,33.5C 590.5,45.8333 590.5,58.1667 590.5,70.5C 594.142,69.9196 597.809,69.4196 601.5,69C 602.428,68.6121 603.095,67.9454 603.5,67C 606.155,55.8908 608.488,44.7241 610.5,33.5C 622.5,33.5 634.5,33.5 646.5,33.5C 646.5,37.8333 646.5,42.1667 646.5,46.5C 643.391,46.6553 640.391,47.3219 637.5,48.5C 635.179,57.4529 633.012,66.4529 631,75.5C 629.581,76.4601 628.081,77.2935 626.5,78C 628.911,78.1976 630.577,79.3643 631.5,81.5C 634.583,91.746 637.25,102.079 639.5,112.5C 642.833,112.833 646.167,113.167 649.5,113.5C 649.8,118.099 649.467,122.599 648.5,127C 637.725,129.326 627.059,128.992 616.5,126C 612.698,123.913 610.198,120.746 609,116.5C 606.618,107.591 604.618,98.5905 603,89.5C 598.934,88.5363 594.767,88.203 590.5,88.5C 590.5,101.167 590.5,113.833 590.5,126.5C 579.833,126.5 569.167,126.5 558.5,126.5C 558.5,113.5 558.5,100.5 558.5,87.5C 554.426,87.7011 550.426,88.3678 546.5,89.5C 544.605,97.8085 542.771,106.142 541,114.5C 539.495,119.355 536.662,123.188 532.5,126C 522.276,128.992 511.943,129.325 501.5,127C 500.533,122.599 500.2,118.099 500.5,113.5C 503.518,113.296 506.518,112.963 509.5,112.5C 512.031,101.376 515.031,90.3761 518.5,79.5C 519.795,78.9017 521.128,78.4017 522.5,78C 520.508,77.4257 519.008,76.259 518,74.5C 516.145,65.7482 513.979,57.0815 511.5,48.5C 508.988,47.2054 506.321,46.5387 503.5,46.5C 503.5,42.1667 503.5,37.8333 503.5,33.5 Z"/></g>
<g><path style="opacity:0.963" fill="white" d="M 767.5,113.5 C 767.5,117.833 767.5,122.167 767.5,126.5C 759.168,127.111 750.835,127.778 742.5,128.5C 737.198,128.54 732.198,127.374 727.5,125C 726.283,123.352 725.45,121.519 725,119.5C 724.5,108.839 724.333,98.1719 724.5,87.5C 716.79,87.9025 709.123,88.5692 701.5,89.5C 700.501,101.815 700.168,114.149 700.5,126.5C 689.833,126.5 679.167,126.5 668.5,126.5C 668.833,100.491 668.5,74.4915 667.5,48.5C 664.292,47.198 660.959,46.5313 657.5,46.5C 657.5,42.1667 657.5,37.8333 657.5,33.5C 671.833,33.5 686.167,33.5 700.5,33.5C 700.5,45.8333 700.5,58.1667 700.5,70.5C 708.5,70.5 716.5,70.5 724.5,70.5C 724.5,58.1667 724.5,45.8333 724.5,33.5C 735.167,33.5 745.833,33.5 756.5,33.5C 756.5,59.5 756.5,85.5 756.5,111.5C 760.258,111.848 763.924,112.515 767.5,113.5 Z"/></g>
</svg>
