<?xml version="1.0" encoding="utf-8"?>
<!-- Generator: Adobe Illustrator 24.2.1, SVG Export Plug-In . SVG Version: 6.00 Build 0)  -->
<svg version="1.1" id="Слой_1" xmlns="http://www.w3.org/2000/svg" xmlns:xlink="http://www.w3.org/1999/xlink" x="0px" y="0px"
	 viewBox="0 0 1000 1000" style="enable-background:new 0 0 1000 1000;" xml:space="preserve">
<style type="text/css">
	.st0{fill:#ED1C24;}
	.st1{fill:#0082C7;}
</style>
<g>
	<polygon class="st0" points="194.2,400.23 174.68,529.61 307.12,471.05 	"/>
	<path class="st1" d="M894.73,475.04c-1.6,8.27-7.57,15.02-15.59,17.62l-32.02,10.38l14.86,25.92l-18.44,10.59l-27.92-48.66
		l56.96-18.46c0.69-0.23,1.12-0.71,1.26-1.44c0.14-0.72-0.08-1.32-0.64-1.8l-1.02-0.97l-67.36-73.5l15.68-14.38l66.96,73.06
		C893.5,458.82,896.28,467.03,894.73,475.04z M789.01,400.05v-0.55h0.16v-21.26h-17c-23.4,0-44.71,19.77-44.71,41.49h21.27
		c0-9.11,9.78-18.29,20.29-19.89v18.48L789.01,400.05z M855.35,558.68l-20.67,14.22c6.36,10.13,14.9,26.19,14.58,39.16
		c0,22.25-18.31,40.54-40.81,40.54H665.88l-7.47,43.3h90.66l-2.72,12.64l-17.86,105.59c18.68,12.44,33.03,27.32,42.47,45.18
		l-18.8,9.93c-46.83-88.64-253.52-95.84-498.62-95.84l-148.69-0.05l3.47-23.18c82.65-1.92,153.48-64.1,165.61-146.22l28.43-192.42
		l3.13-21.84c0.13-0.87,0.34-1.7,0.49-2.57l9.96-67.35c8.66-58.64,38.15-112.27,83.03-151.01c44.88-38.73,102.25-60.06,161.53-60.06
		h100.65c39.08,0,71.43,29.24,76.4,66.98c12.24,6,23.42,14.22,32.83,24.39c20.4,22.04,31.13,51.62,29.64,81.56l32.35,63.83l-23,20.2
		l-26.78-9.52c-27.71-9.84-59.08-4.41-81.84,14.22l-13.46-16.47c28.48-23.29,67.73-30.11,102.42-17.78l15.01,5.33l1.22-1.07
		l-27.55-54.37l0.23-2.97c1.97-25.45-6.5-49.78-23.84-68.52c-17.35-18.73-40.96-29.04-66.48-29.04h-21.16V164.2h21.16
		c8.62,0,17.14,1.05,25.42,2.99c-7.69-21.65-28.32-37.23-52.57-37.23H560.49c-111.18,0-207.28,82.94-223.52,192.92l-2.42,16.36
		c13.62-10.89,30.78-17.43,49.19-17.43h27.42c38.88,0,72.53-28.99,78.29-67.44l1.08-7.22h20.17l1.31,0.2l-1.53,10.17
		c-7.31,48.77-50,85.56-99.32,85.56h-27.42c-27.69,0-51.57,20.04-56.7,47.01l-5.14,34.73c12.96-10.11,29.14-16.14,46.47-16.14h0.24
		l120.16,0.37h0.2c31.27,0,58.3-23.28,62.93-54.2c0.91-6.04-0.86-12.14-4.83-16.75c-3.98-4.62-9.76-7.27-15.85-7.27
		c-10.27,0-19.17,7.66-20.68,17.82l-2.19,14.6h-21.5l2.66-17.75c3.06-20.48,21-35.93,41.72-35.93c12.29,0,23.95,5.33,31.96,14.64
		c8.02,9.31,11.58,21.63,9.76,33.78c-6.18,41.27-42.24,72.33-83.96,72.34h-0.26l-120.16-0.38h-0.18c-26.92,0-50.1,20.05-53.95,46.72
		l-4.59,31.72l-0.26-0.04l-14.59,98.71c-6.75,45.71-29.73,87.49-64.69,117.67c-12.73,10.98-26.74,20.14-41.65,27.39h17.04v-0.38
		h9.24c65.04,0,120.6-48.61,129.22-113.09l3.33-24.87c-3.63-2.83-7.02-6.01-10.11-9.51c-14.2-16.21-20.76-37.75-17.96-59.11
		l2.8-18.17c5.41-36.56,37.24-64.03,74.07-64.03H513.8c43.58,0,81.33-32.1,88.6-74.94c0.06-0.39,0.09-0.79,0.15-1.2l6.97-45.8
		l18.93-126.51h21.5l-19.41,129.71l-0.01,0.11l-6.77,45.14c-0.09,0.62-0.21,1.22-0.32,1.83c-2.37,18,2.84,36.22,14.48,50.2
		c11.92,14.32,29.44,22.85,48.05,23.43l12.24,0.38l-28.67,166.03h138.91c10.78,0,19.53-8.77,19.53-19.55
		c0.21-8.67-9.58-25.86-16.59-35.36l-6.53-8.83l38.43-26.44L855.35,558.68z M495.22,484.21h-98.98c-13.42,0-25.91,5.13-35.45,13.57
		c3.18-0.62,6.44-0.96,9.77-0.96c14.4,0,28.2,6.11,37.87,16.79c8.24,9.11,12.87,20.9,13.17,33.06h-21.26
		c-0.28-6.96-2.9-13.51-7.68-18.78c-5.72-6.33-13.57-9.8-22.1-9.8c-14.93,0-27.65,11.17-29.58,25.96l-0.5,3.87
		c-2,15.3,2.67,30.73,12.85,42.31c10.17,11.59,24.85,18.25,40.28,18.25c47.52,0,88.57-35.46,95.48-82.47L495.22,484.21z
		 M590.24,525.29h-7.08c-22.81,0-41.36-18.55-41.36-41.36h-21.26c0,34.53,28.09,62.62,62.62,62.62h7.08V525.29z"/>
</g>
</svg>
